<?xml version="1.0" encoding="UTF-8"?>
<svg xmlns="http://www.w3.org/2000/svg" xmlns:xlink="http://www.w3.org/1999/xlink" width="300pt" height="299.999988pt" viewBox="0 0 300 299.999988" version="1.2">
<defs>
<clipPath id="clip1">
  <path d="M 140 270 L 151 270 L 151 279.75 L 140 279.75 Z M 140 270 "/>
</clipPath>
<clipPath id="clip2">
  <path d="M 150 270 L 160 270 L 160 279.75 L 150 279.75 Z M 150 270 "/>
</clipPath>
<clipPath id="clip3">
  <path d="M 140 13 L 151 13 L 151 22.722656 L 140 22.722656 Z M 140 13 "/>
</clipPath>
<clipPath id="clip4">
  <path d="M 150 13 L 160 13 L 160 22.722656 L 150 22.722656 Z M 150 13 "/>
</clipPath>
</defs>
<g id="surface1">
<path style=" stroke:none;fill-rule:nonzero;fill:rgb(0%,0%,0%);fill-opacity:1;" d="M 130.089844 273.128906 L 140.65625 274.78125 L 142.164062 275.019531 L 140.65625 275.253906 L 130.089844 276.90625 L 130.046875 276.90625 L 90.015625 275.019531 L 130.046875 273.128906 Z M 130.058594 273.96875 L 136.398438 274.597656 L 130.042969 273.605469 L 107.929688 274.605469 Z M 136.398438 275.4375 L 130.058594 276.066406 L 107.933594 275.433594 L 130.042969 276.429688 Z M 136.398438 275.4375 "/>
<path style=" stroke:none;fill-rule:nonzero;fill:rgb(0%,0%,0%);fill-opacity:1;" d="M 169.914062 273.128906 L 159.351562 274.78125 L 157.839844 275.019531 L 159.351562 275.253906 L 169.914062 276.90625 L 169.957031 276.90625 L 209.988281 275.019531 L 169.957031 273.128906 Z M 169.945312 273.96875 L 163.605469 274.597656 L 169.960938 273.605469 L 192.074219 274.605469 Z M 163.605469 275.4375 L 169.945312 276.066406 L 192.070312 275.433594 L 169.960938 276.429688 Z M 163.605469 275.4375 "/>
<g clip-path="url(#clip1)" clip-rule="nonzero">
<path style=" stroke:none;fill-rule:nonzero;fill:rgb(0%,0%,0%);fill-opacity:1;" d="M 142.011719 274.558594 C 141.085938 273.953125 140.882812 272.753906 141.589844 271.933594 C 141.976562 271.480469 142.742188 271.386719 143.300781 271.859375 C 143.753906 272.246094 143.625 273.308594 142.882812 273.292969 C 143.859375 273.734375 144.394531 273.195312 144.574219 272.917969 C 144.96875 272.3125 144.898438 271.207031 143.910156 270.621094 C 142.847656 269.988281 141.5 270.445312 140.914062 271.476562 C 140.320312 272.519531 140.488281 274.195312 141.867188 274.898438 C 141.960938 274.945312 142.0625 274.984375 142.164062 275.019531 C 142.0625 275.050781 141.960938 275.089844 141.867188 275.136719 C 140.488281 275.839844 140.320312 277.515625 140.914062 278.558594 C 141.5 279.589844 142.847656 280.046875 143.910156 279.414062 C 144.898438 278.828125 144.96875 277.726562 144.574219 277.117188 C 144.394531 276.84375 143.859375 276.300781 142.882812 276.742188 C 143.625 276.726562 143.753906 277.789062 143.300781 278.175781 C 142.742188 278.648438 141.976562 278.554688 141.589844 278.105469 C 140.882812 277.28125 141.085938 276.082031 142.011719 275.476562 C 142.582031 275.101562 142.757812 275.152344 143.277344 275.019531 C 142.808594 274.894531 142.582031 274.933594 142.011719 274.558594 Z M 141.988281 272.875 C 142.230469 274.003906 142.890625 274.65625 143.457031 275.019531 C 142.890625 275.378906 142.230469 276.03125 141.988281 277.160156 C 142.910156 275.457031 147.707031 275.285156 150.003906 275.019531 C 147.707031 274.75 142.832031 274.4375 141.988281 272.875 Z M 141.988281 272.875 "/>
</g>
<g clip-path="url(#clip2)" clip-rule="nonzero">
<path style=" stroke:none;fill-rule:nonzero;fill:rgb(0%,0%,0%);fill-opacity:1;" d="M 157.992188 274.558594 C 158.917969 273.953125 159.121094 272.753906 158.414062 271.933594 C 158.027344 271.480469 157.261719 271.386719 156.707031 271.859375 C 156.25 272.246094 156.378906 273.308594 157.121094 273.292969 C 156.144531 273.734375 155.609375 273.195312 155.429688 272.917969 C 155.035156 272.3125 155.105469 271.207031 156.09375 270.621094 C 157.15625 269.988281 158.503906 270.445312 159.089844 271.476562 C 159.683594 272.519531 159.519531 274.195312 158.136719 274.898438 C 158.042969 274.945312 157.941406 274.984375 157.839844 275.019531 C 157.941406 275.050781 158.042969 275.089844 158.136719 275.136719 C 159.519531 275.839844 159.683594 277.515625 159.089844 278.558594 C 158.503906 279.589844 157.15625 280.046875 156.09375 279.414062 C 155.105469 278.828125 155.035156 277.726562 155.429688 277.117188 C 155.609375 276.84375 156.144531 276.300781 157.121094 276.742188 C 156.378906 276.726562 156.25 277.789062 156.707031 278.175781 C 157.261719 278.648438 158.027344 278.554688 158.414062 278.105469 C 159.121094 277.28125 158.917969 276.082031 157.992188 275.476562 C 157.421875 275.101562 157.246094 275.152344 156.726562 275.019531 C 157.195312 274.894531 157.421875 274.933594 157.992188 274.558594 Z M 158.015625 272.875 C 157.773438 274.003906 157.113281 274.65625 156.546875 275.019531 C 157.113281 275.378906 157.773438 276.03125 158.015625 277.160156 C 157.09375 275.457031 152.296875 275.285156 150.003906 275.019531 C 152.296875 274.75 157.171875 274.4375 158.015625 272.875 Z M 158.015625 272.875 "/>
</g>
<path style=" stroke:none;fill-rule:nonzero;fill:rgb(0%,0%,0%);fill-opacity:1;" d="M 130.089844 16.105469 L 140.65625 17.757812 L 142.164062 17.992188 L 140.65625 18.226562 L 130.089844 19.878906 L 130.070312 19.882812 L 130.046875 19.882812 L 90.015625 17.992188 L 130.046875 16.101562 L 130.070312 16.101562 Z M 130.058594 16.941406 L 136.398438 17.574219 L 130.042969 16.578125 L 107.929688 17.578125 Z M 136.398438 18.410156 L 130.058594 19.039062 L 107.933594 18.40625 L 130.042969 19.40625 Z M 136.398438 18.410156 "/>
<path style=" stroke:none;fill-rule:nonzero;fill:rgb(0%,0%,0%);fill-opacity:1;" d="M 169.914062 16.105469 L 159.351562 17.757812 L 157.839844 17.992188 L 159.351562 18.226562 L 169.914062 19.878906 L 169.933594 19.882812 L 169.957031 19.882812 L 209.988281 17.992188 L 169.957031 16.101562 L 169.933594 16.101562 Z M 169.945312 16.941406 L 163.605469 17.574219 L 169.960938 16.578125 L 192.074219 17.578125 Z M 163.605469 18.410156 L 169.945312 19.039062 L 192.070312 18.40625 L 169.960938 19.40625 Z M 163.605469 18.410156 "/>
<g clip-path="url(#clip3)" clip-rule="nonzero">
<path style=" stroke:none;fill-rule:nonzero;fill:rgb(0%,0%,0%);fill-opacity:1;" d="M 142.011719 17.535156 C 141.085938 16.929688 140.882812 15.730469 141.589844 14.90625 C 141.976562 14.453125 142.742188 14.363281 143.300781 14.835938 C 143.753906 15.222656 143.625 16.28125 142.882812 16.269531 C 143.859375 16.710938 144.394531 16.167969 144.574219 15.890625 C 144.96875 15.285156 144.898438 14.179688 143.910156 13.59375 C 142.847656 12.964844 141.5 13.417969 140.914062 14.449219 C 140.320312 15.496094 140.488281 17.167969 141.867188 17.871094 C 141.960938 17.921875 142.0625 17.960938 142.164062 17.992188 C 142.0625 18.023438 141.960938 18.0625 141.867188 18.113281 C 140.488281 18.816406 140.320312 20.488281 140.914062 21.53125 C 141.5 22.566406 142.847656 23.019531 143.910156 22.390625 C 144.898438 21.804688 144.96875 20.699219 144.574219 20.09375 C 144.394531 19.816406 143.859375 19.273438 142.882812 19.714844 C 143.625 19.703125 143.753906 20.761719 143.300781 21.148438 C 142.742188 21.621094 141.976562 21.527344 141.589844 21.078125 C 140.882812 20.253906 141.085938 19.054688 142.011719 18.449219 C 142.582031 18.074219 142.757812 18.128906 143.277344 17.992188 C 142.808594 17.867188 142.582031 17.910156 142.011719 17.535156 Z M 141.988281 15.851562 C 142.230469 16.976562 142.890625 17.632812 143.457031 17.992188 C 142.890625 18.351562 142.230469 19.007812 141.988281 20.132812 C 142.910156 18.433594 147.707031 18.257812 150.003906 17.992188 C 147.707031 17.726562 142.832031 17.414062 141.988281 15.851562 Z M 141.988281 15.851562 "/>
</g>
<g clip-path="url(#clip4)" clip-rule="nonzero">
<path style=" stroke:none;fill-rule:nonzero;fill:rgb(0%,0%,0%);fill-opacity:1;" d="M 157.992188 17.535156 C 158.917969 16.929688 159.121094 15.730469 158.414062 14.90625 C 158.027344 14.453125 157.261719 14.363281 156.707031 14.835938 C 156.25 15.222656 156.378906 16.28125 157.121094 16.269531 C 156.144531 16.710938 155.609375 16.167969 155.429688 15.890625 C 155.035156 15.285156 155.105469 14.179688 156.09375 13.59375 C 157.15625 12.964844 158.503906 13.417969 159.089844 14.449219 C 159.683594 15.496094 159.519531 17.167969 158.136719 17.871094 C 158.042969 17.921875 157.941406 17.960938 157.839844 17.992188 C 157.941406 18.023438 158.042969 18.0625 158.136719 18.113281 C 159.519531 18.816406 159.683594 20.488281 159.089844 21.53125 C 158.503906 22.566406 157.15625 23.019531 156.09375 22.390625 C 155.105469 21.804688 155.035156 20.699219 155.429688 20.09375 C 155.609375 19.816406 156.144531 19.273438 157.121094 19.714844 C 156.378906 19.703125 156.25 20.761719 156.707031 21.148438 C 157.261719 21.621094 158.027344 21.527344 158.414062 21.078125 C 159.121094 20.253906 158.917969 19.054688 157.992188 18.449219 C 157.421875 18.074219 157.246094 18.128906 156.726562 17.992188 C 157.195312 17.867188 157.421875 17.910156 157.992188 17.535156 Z M 158.015625 15.851562 C 157.773438 16.976562 157.113281 17.632812 156.546875 17.992188 C 157.113281 18.351562 157.773438 19.007812 158.015625 20.132812 C 157.09375 18.433594 152.296875 18.257812 150.003906 17.992188 C 152.296875 17.726562 157.171875 17.414062 158.015625 15.851562 Z M 158.015625 15.851562 "/>
</g>
</g>
</svg>
