<?xml version="1.0" encoding="UTF-8"?>
<svg xmlns="http://www.w3.org/2000/svg" xmlns:xlink="http://www.w3.org/1999/xlink" width="419.25pt" height="297.75pt" viewBox="0 0 419.25 297.75" version="1.2">
<defs>
<clipPath id="clip1">
  <path d="M 175 249 L 203 249 L 203 267.773438 L 175 267.773438 Z M 175 249 "/>
</clipPath>
<clipPath id="clip2">
  <path d="M 215 249 L 244 249 L 244 267.773438 L 215 267.773438 Z M 215 249 "/>
</clipPath>
<clipPath id="clip3">
  <path d="M 175 65 L 203 65 L 203 83.820312 L 175 83.820312 Z M 175 65 "/>
</clipPath>
<clipPath id="clip4">
  <path d="M 215 65 L 244 65 L 244 83.820312 L 215 83.820312 Z M 215 65 "/>
</clipPath>
</defs>
<g id="surface1">
<path style=" stroke:none;fill-rule:nonzero;fill:rgb(22.349548%,20.779419%,21.179199%);fill-opacity:1;" d="M 207.101562 226.28125 C 205.804688 227.539062 204.695312 228.882812 204.503906 230.714844 C 204.316406 232.507812 204.78125 232.53125 205.132812 234.378906 C 204.773438 234.105469 203.117188 233.582031 202.988281 233.070312 C 200.578125 237.292969 201.90625 238.65625 201.910156 239.648438 C 200.488281 236.953125 196.304688 238.777344 195.347656 240.9375 C 200.011719 238.972656 201.398438 243.945312 201.089844 246.347656 C 199.585938 245.515625 196.453125 245.65625 195.402344 248.664062 C 194.683594 250.742188 196.269531 252.0625 197.1875 252.472656 L 197.289062 252.511719 C 197.152344 252.144531 197.132812 251.730469 197.308594 251.289062 C 197.953125 249.644531 200.789062 249.148438 202.511719 249.5 C 204.746094 249.957031 207.773438 250.894531 209.363281 257.65625 L 209.363281 218.550781 C 208.242188 221.570312 209.402344 224.042969 207.101562 226.28125 "/>
<path style=" stroke:none;fill-rule:nonzero;fill:rgb(22.349548%,20.779419%,21.179199%);fill-opacity:1;" d="M 171.101562 241 C 169.1875 235.238281 159.085938 232.171875 153.695312 232.785156 C 143.113281 233.988281 135.726562 243.84375 124.96875 244.660156 C 120.738281 244.980469 115.316406 244.628906 112.355469 241.117188 C 109.925781 238.234375 108.5 229.152344 112.933594 227.351562 C 113.019531 227.320312 113.019531 227.167969 112.914062 227.1875 C 106.84375 227.960938 107.210938 238.269531 110.132812 242.054688 C 114.195312 247.316406 121.882812 248.066406 127.972656 246.597656 C 137.207031 244.375 143.371094 235.660156 152.878906 234.105469 C 156.664062 233.488281 160.539062 234.546875 163.9375 236.253906 C 165.570312 237.070312 167.304688 238.015625 168.480469 239.445312 C 169.539062 240.730469 170.296875 243.28125 168.917969 244.324219 C 168.941406 244.179688 168.933594 244.03125 168.898438 243.894531 C 168.84375 243.703125 168.792969 243.515625 168.75 243.324219 C 168.589844 242.730469 167.933594 242.347656 167.339844 242.527344 C 164.625 243.316406 164.714844 246.53125 167.503906 247.171875 C 170.71875 247.90625 171.847656 243.230469 171.101562 241 "/>
<path style=" stroke:none;fill-rule:nonzero;fill:rgb(22.349548%,20.779419%,21.179199%);fill-opacity:1;" d="M 194.011719 256.121094 C 192.699219 254.3125 191.992188 251.527344 191.300781 249.429688 C 190.234375 246.21875 188.125 243.972656 184.953125 242.773438 C 182.4375 241.828125 179.226562 241.0625 176.738281 242.394531 C 175.375 243.128906 175.402344 244.882812 175.421875 246.167969 C 175.445312 246.6875 175.523438 247.199219 175.65625 247.699219 C 176.070312 249.542969 177.675781 249.316406 177.738281 247.730469 C 177.027344 248.324219 176.523438 246.898438 177.207031 246.621094 C 179.78125 245.605469 180.492188 250.121094 177.636719 250.753906 C 173.667969 251.636719 173.449219 245.714844 174.109375 243.203125 C 175.414062 238.222656 183.101562 239.863281 186.328125 241.257812 C 191.679688 243.570312 194.0625 250.523438 194.351562 255.957031 C 194.367188 256.171875 194.011719 256.121094 194.011719 256.121094 "/>
<path style=" stroke:none;fill-rule:nonzero;fill:rgb(22.349548%,20.779419%,21.179199%);fill-opacity:1;" d="M 174.320312 247.640625 C 174.164062 247.511719 173.832031 246.273438 173.851562 246.503906 C 173.972656 247.878906 173.84375 249.550781 173.632812 250.429688 C 173.402344 251.351562 173.011719 252.238281 172.316406 252.90625 C 170.867188 254.28125 168.277344 254.40625 166.925781 252.761719 C 165.882812 251.492188 166.527344 249.546875 167.820312 248.695312 C 168.332031 248.355469 169.074219 247.992188 169.679688 248.347656 C 170.160156 248.636719 170.601562 249.167969 170.5625 249.761719 C 170.527344 250.324219 170.246094 250.617188 169.894531 250.574219 C 170.089844 250.328125 170.164062 250 170.007812 249.726562 L 169.992188 249.667969 C 169.65625 248.976562 168.816406 249.132812 168.535156 249.703125 C 168.167969 250.179688 168.476562 250.933594 168.972656 251.359375 C 169.941406 252.191406 171.128906 251.511719 171.570312 250.863281 C 172.386719 249.671875 171.628906 247.761719 170.359375 247.179688 C 167.933594 246.0625 165.398438 248.421875 165.082031 250.792969 C 164.644531 254.074219 168.832031 256.457031 171.703125 255.273438 C 173.167969 254.671875 174.351562 253.558594 174.867188 252.027344 C 175.316406 250.703125 175.523438 248.636719 174.320312 247.640625 "/>
<path style=" stroke:none;fill-rule:nonzero;fill:rgb(22.349548%,20.779419%,21.179199%);fill-opacity:1;" d="M 155.820312 232.484375 C 162.925781 232.558594 169.773438 232.417969 175.625 227.824219 C 177.910156 226.027344 181.234375 222.980469 180.488281 219.746094 C 180.042969 217.84375 177.214844 216.949219 175.648438 216.492188 C 173.757812 215.945312 169.921875 217.820312 171.046875 220.441406 C 171.191406 220.78125 172.863281 223.367188 173.480469 221.792969 C 173.707031 221.207031 174.660156 221.453125 174.433594 222.054688 C 173.136719 225.585938 169.472656 221.265625 170.261719 218.808594 C 171.726562 214.222656 180.109375 214.359375 182.15625 218.316406 C 184.785156 223.398438 179.105469 228.308594 175.347656 230.902344 C 170.152344 234.496094 161.429688 236.1875 155.589844 233.332031 C 155.179688 233.128906 155.382812 232.480469 155.820312 232.484375 "/>
<path style=" stroke:none;fill-rule:nonzero;fill:rgb(22.349548%,20.779419%,21.179199%);fill-opacity:1;" d="M 167.203125 233.023438 C 162.695312 235.519531 157.726562 233.109375 153.226562 231.726562 C 146.257812 229.585938 139.453125 230.910156 133.625 235.128906 C 129.863281 237.851562 117.40625 247.949219 113.546875 240.171875 C 113.453125 239.988281 113.636719 239.777344 113.828125 239.886719 C 115.882812 241.054688 117.347656 242.027344 119.851562 241.667969 C 121.929688 241.367188 123.882812 240.3125 125.679688 239.289062 C 129.140625 237.320312 132.183594 234.703125 135.554688 232.589844 C 139.890625 229.871094 145.128906 228.984375 150.164062 229.472656 C 155.875 230.03125 161.226562 234.722656 167.128906 232.847656 C 167.234375 232.8125 167.300781 232.96875 167.203125 233.023438 "/>
<path style=" stroke:none;fill-rule:nonzero;fill:rgb(22.349548%,20.779419%,21.179199%);fill-opacity:1;" d="M 126.664062 239.402344 C 129.886719 237.390625 132.136719 231.949219 129.625 228.691406 C 128.210938 226.867188 124.703125 226.273438 123.214844 228.347656 C 122.652344 229.128906 122.875 230.28125 123.117188 231.121094 C 123.285156 231.582031 123.527344 231.992188 123.855469 232.359375 C 124.972656 233.6875 124.953125 231.980469 125.074219 232.003906 C 124.390625 231.867188 124.679688 230.804688 125.363281 230.960938 C 128.03125 231.574219 125.546875 234.792969 123.78125 233.644531 C 121.402344 232.109375 120.910156 227.921875 123.398438 226.214844 C 126.980469 223.738281 131.386719 226.585938 132.070312 230.496094 C 132.761719 234.398438 130.378906 238.335938 126.679688 239.4375 L 126.664062 239.402344 "/>
<path style=" stroke:none;fill-rule:nonzero;fill:rgb(22.349548%,20.779419%,21.179199%);fill-opacity:1;" d="M 131.949219 244.484375 C 138.925781 240.5 149.011719 234.242188 156.40625 241.007812 C 157.957031 242.425781 160.15625 245.785156 157.632812 247.5625 C 156.277344 248.511719 152.523438 249.765625 152.503906 247.03125 C 152.503906 246.941406 152.609375 246.929688 152.652344 246.988281 C 154.207031 249.105469 157.492188 247.230469 157.121094 244.753906 C 156.902344 243.324219 155.179688 242.144531 154.097656 241.402344 C 151.863281 239.867188 149.171875 239.390625 146.511719 239.539062 C 141.34375 239.832031 136.953125 243.402344 132.058594 244.734375 C 131.902344 244.773438 131.816406 244.558594 131.949219 244.484375 "/>
<path style=" stroke:none;fill-rule:nonzero;fill:rgb(22.349548%,20.779419%,21.179199%);fill-opacity:1;" d="M 193.144531 260.984375 C 191.914062 254.488281 199.152344 249.171875 205.058594 252.332031 C 207.242188 253.5 209.230469 256.085938 207.738281 258.519531 C 206.683594 260.242188 205.070312 259.804688 204.417969 258.171875 C 204.136719 257.457031 204.417969 257.757812 205.347656 258.171875 C 206.273438 258.589844 206.957031 255.964844 205.628906 255.097656 C 205.003906 254.523438 204.289062 254.09375 203.488281 253.804688 C 201.820312 253.125 199.941406 253.273438 198.320312 253.960938 C 195.554688 255.136719 194.0625 258.273438 193.304688 260.984375 L 193.144531 260.984375 "/>
<path style=" stroke:none;fill-rule:nonzero;fill:rgb(22.349548%,20.779419%,21.179199%);fill-opacity:1;" d="M 194.664062 256.121094 C 190.15625 251.433594 193.382812 245.105469 195.804688 240.300781 C 197.914062 236.109375 199.9375 230.203125 194.222656 228.191406 C 192.386719 227.546875 189.976562 227.484375 188.378906 228.742188 C 187.058594 229.78125 186.957031 231.996094 187.230469 233.464844 C 187.535156 235.132812 190.457031 235.472656 190.265625 234.75 C 190.03125 233.855469 191.414062 233.472656 191.648438 234.367188 C 192.496094 237.566406 187.914062 237.4375 186.621094 235.402344 C 183.953125 231.230469 186.894531 226.5625 191.511719 226.375 C 196.359375 226.179688 199.777344 229.40625 199.324219 234.175781 C 198.574219 242.027344 189.773438 248.015625 194.703125 256.085938 L 194.664062 256.121094 "/>
<path style=" stroke:none;fill-rule:nonzero;fill:rgb(22.349548%,20.779419%,21.179199%);fill-opacity:1;" d="M 122.125 243.738281 C 129.769531 242.070312 134.960938 235.152344 142.253906 232.558594 C 149.46875 229.988281 156.234375 230.632812 162.667969 234.847656 C 163.050781 235.101562 162.8125 235.746094 162.351562 235.605469 C 158.542969 234.496094 155.578125 232.238281 151.464844 231.875 C 147.007812 231.480469 142.789062 233.386719 138.980469 235.472656 C 133.703125 238.359375 128.640625 244.515625 122.140625 243.847656 L 122.125 243.738281 "/>
<path style=" stroke:none;fill-rule:nonzero;fill:rgb(22.349548%,20.779419%,21.179199%);fill-opacity:1;" d="M 131.414062 241.640625 C 137.175781 239.472656 141.070312 234.503906 146.9375 232.597656 C 152.308594 230.851562 159.058594 231.277344 163.957031 234.214844 C 164.316406 234.425781 164.140625 234.929688 163.753906 234.960938 C 161.101562 235.140625 158.535156 233.789062 155.960938 233.253906 C 152.277344 232.492188 148.027344 233.304688 144.628906 234.785156 C 140.359375 236.652344 136.304688 241.730469 131.4375 241.804688 C 131.339844 241.804688 131.335938 241.675781 131.414062 241.640625 "/>
<path style=" stroke:none;fill-rule:nonzero;fill:rgb(22.349548%,20.779419%,21.179199%);fill-opacity:1;" d="M 187.414062 228.46875 C 184.757812 229.371094 183.429688 226.53125 182.855469 224.457031 C 182.144531 221.90625 182.484375 218.519531 184.480469 216.636719 C 186.433594 214.792969 191.382812 213.925781 192.878906 216.882812 C 194.09375 219.300781 192.25 222.070312 189.71875 220.089844 C 189.597656 219.996094 189.726562 219.777344 189.863281 219.835938 C 190.035156 219.894531 190.195312 219.964844 190.359375 220.03125 C 192.863281 221.160156 192.039062 218.765625 191.738281 218.109375 C 191.171875 216.898438 189.703125 216.609375 188.523438 216.632812 C 186.621094 216.671875 184.835938 217.992188 184.207031 219.757812 C 183.1875 222.652344 183.574219 228.023438 187.394531 228.335938 L 187.414062 228.46875 "/>
<path style=" stroke:none;fill-rule:nonzero;fill:rgb(22.349548%,20.779419%,21.179199%);fill-opacity:1;" d="M 192.421875 217.679688 C 193.613281 217.925781 194.609375 218.785156 195.65625 219.390625 C 197.429688 220.429688 199.398438 221.109375 201.4375 221.339844 C 203.496094 221.574219 205.761719 220.753906 207.035156 219.097656 C 207.457031 218.550781 207.699219 217.867188 207.78125 217.1875 C 208.105469 214.511719 204.011719 215.765625 204.292969 216.636719 C 204.449219 217.128906 203.710938 217.3125 203.535156 216.847656 C 202.664062 214.59375 205.421875 213.804688 207.160156 214.046875 C 209.492188 214.378906 209.835938 217.277344 208.949219 219.007812 C 207.464844 221.894531 204.515625 222.71875 201.4375 222.539062 C 198.628906 222.375 193.675781 220.414062 192.382812 217.734375 L 192.421875 217.679688 "/>
<g clip-path="url(#clip1)" clip-rule="nonzero">
<path style=" stroke:none;fill-rule:nonzero;fill:rgb(22.349548%,20.779419%,21.179199%);fill-opacity:1;" d="M 201.921875 259.316406 C 204.753906 262.675781 201.1875 267.386719 197.710938 267.527344 C 193.234375 267.710938 192.59375 265.058594 192.117188 261.066406 C 191.640625 257.070312 189.398438 254.3125 185.980469 252.3125 C 184.675781 251.554688 183.1875 250.75 181.832031 250.34375 C 175.246094 248.339844 176.097656 256.96875 180.449219 254.761719 C 179.921875 253.082031 182.269531 254.15625 180.898438 255.207031 C 178.648438 256.9375 175.914062 255.808594 175.425781 253.140625 C 174.78125 249.578125 179.066406 249.300781 181.261719 249.605469 C 186.320312 250.300781 190.625 252.839844 192.734375 257.671875 C 193.515625 259.464844 193.339844 261.398438 193.453125 263.296875 C 193.636719 266.285156 195.664062 266.628906 197.949219 265.535156 C 199.03125 265.03125 199.632812 264.117188 199.761719 262.800781 C 199.832031 261.835938 197.625 259.921875 197.054688 261.371094 C 198.804688 264.542969 192.382812 263.691406 194.796875 260.164062 C 196.824219 257.214844 200.285156 257.375 201.921875 259.316406 "/>
</g>
<path style=" stroke:none;fill-rule:nonzero;fill:rgb(22.349548%,20.779419%,21.179199%);fill-opacity:1;" d="M 129.183594 238.113281 L 42.867188 237.46875 L 129.183594 236.820312 Z M 129.183594 238.113281 "/>
<path style=" stroke:none;fill-rule:nonzero;fill:rgb(22.349548%,20.779419%,21.179199%);fill-opacity:1;" d="M 211.625 226.28125 C 212.917969 227.539062 214.03125 228.882812 214.222656 230.714844 C 214.410156 232.507812 213.945312 232.53125 213.59375 234.378906 C 213.953125 234.105469 215.609375 233.582031 215.738281 233.070312 C 218.148438 237.292969 216.820312 238.65625 216.8125 239.648438 C 218.234375 236.953125 222.421875 238.777344 223.378906 240.9375 C 218.714844 238.972656 217.328125 243.945312 217.636719 246.347656 C 219.144531 245.515625 222.273438 245.65625 223.320312 248.664062 C 224.039062 250.742188 222.457031 252.0625 221.539062 252.472656 L 221.4375 252.511719 C 221.574219 252.144531 221.59375 251.730469 221.414062 251.289062 C 220.773438 249.644531 217.933594 249.148438 216.214844 249.5 C 213.980469 249.957031 210.957031 250.894531 209.363281 257.65625 L 209.363281 218.550781 C 210.480469 221.570312 209.324219 224.042969 211.625 226.28125 "/>
<path style=" stroke:none;fill-rule:nonzero;fill:rgb(22.349548%,20.779419%,21.179199%);fill-opacity:1;" d="M 247.621094 241 C 249.535156 235.238281 259.640625 232.171875 265.035156 232.785156 C 275.613281 233.988281 283 243.84375 293.753906 244.660156 C 297.988281 244.980469 303.410156 244.628906 306.371094 241.117188 C 308.800781 238.234375 310.222656 229.152344 305.792969 227.351562 C 305.707031 227.320312 305.707031 227.167969 305.8125 227.1875 C 311.882812 227.960938 311.515625 238.269531 308.59375 242.054688 C 304.53125 247.316406 296.839844 248.066406 290.75 246.597656 C 281.519531 244.375 275.359375 235.660156 265.851562 234.105469 C 262.0625 233.488281 258.1875 234.546875 254.789062 236.253906 C 253.15625 237.070312 251.421875 238.015625 250.246094 239.445312 C 249.1875 240.730469 248.429688 243.28125 249.804688 244.324219 C 249.785156 244.179688 249.789062 244.03125 249.828125 243.894531 C 249.878906 243.703125 249.929688 243.515625 249.976562 243.324219 C 250.136719 242.730469 250.792969 242.347656 251.386719 242.527344 C 254.101562 243.316406 254.007812 246.53125 251.222656 247.171875 C 248.007812 247.90625 246.878906 243.230469 247.621094 241 "/>
<path style=" stroke:none;fill-rule:nonzero;fill:rgb(22.349548%,20.779419%,21.179199%);fill-opacity:1;" d="M 224.714844 256.121094 C 226.027344 254.3125 226.730469 251.527344 227.425781 249.429688 C 228.492188 246.21875 230.597656 243.972656 233.773438 242.773438 C 236.289062 241.828125 239.5 241.0625 241.988281 242.394531 C 243.351562 243.128906 243.320312 244.882812 243.300781 246.167969 C 243.28125 246.6875 243.203125 247.199219 243.070312 247.699219 C 242.65625 249.542969 241.050781 249.316406 240.988281 247.730469 C 241.699219 248.324219 242.207031 246.898438 241.519531 246.621094 C 238.945312 245.605469 238.234375 250.121094 241.085938 250.753906 C 245.058594 251.636719 245.277344 245.714844 244.613281 243.203125 C 243.3125 238.222656 235.625 239.863281 232.398438 241.257812 C 227.046875 243.570312 224.664062 250.523438 224.371094 255.957031 C 224.359375 256.171875 224.714844 256.121094 224.714844 256.121094 "/>
<path style=" stroke:none;fill-rule:nonzero;fill:rgb(22.349548%,20.779419%,21.179199%);fill-opacity:1;" d="M 244.410156 247.640625 C 244.5625 247.511719 244.894531 246.273438 244.875 246.503906 C 244.753906 247.878906 244.878906 249.550781 245.09375 250.429688 C 245.324219 251.351562 245.710938 252.238281 246.410156 252.90625 C 247.859375 254.28125 250.445312 254.40625 251.800781 252.761719 C 252.84375 251.492188 252.199219 249.546875 250.902344 248.695312 C 250.394531 248.355469 249.648438 247.992188 249.042969 248.347656 C 248.5625 248.636719 248.125 249.167969 248.164062 249.761719 C 248.199219 250.324219 248.476562 250.617188 248.832031 250.574219 C 248.632812 250.328125 248.5625 250 248.71875 249.726562 L 248.734375 249.667969 C 249.070312 248.976562 249.910156 249.132812 250.191406 249.703125 C 250.558594 250.179688 250.25 250.933594 249.75 251.359375 C 248.78125 252.191406 247.597656 251.511719 247.152344 250.863281 C 246.339844 249.671875 247.097656 247.761719 248.363281 247.179688 C 250.789062 246.0625 253.328125 248.421875 253.644531 250.792969 C 254.078125 254.074219 249.898438 256.457031 247.023438 255.273438 C 245.558594 254.671875 244.375 253.558594 243.855469 252.027344 C 243.410156 250.703125 243.199219 248.636719 244.410156 247.640625 "/>
<path style=" stroke:none;fill-rule:nonzero;fill:rgb(22.349548%,20.779419%,21.179199%);fill-opacity:1;" d="M 262.90625 232.484375 C 255.800781 232.558594 248.953125 232.417969 243.097656 227.824219 C 240.816406 226.027344 237.492188 222.980469 238.238281 219.746094 C 238.683594 217.84375 241.507812 216.949219 243.078125 216.492188 C 244.972656 215.945312 248.804688 217.820312 247.679688 220.441406 C 247.535156 220.78125 245.859375 223.367188 245.246094 221.792969 C 245.019531 221.207031 244.066406 221.453125 244.292969 222.054688 C 245.589844 225.585938 249.253906 221.265625 248.464844 218.808594 C 247 214.222656 238.617188 214.359375 236.570312 218.316406 C 233.941406 223.398438 239.621094 228.308594 243.375 230.902344 C 248.574219 234.496094 257.296875 236.1875 263.132812 233.332031 C 263.546875 233.128906 263.34375 232.480469 262.90625 232.484375 "/>
<path style=" stroke:none;fill-rule:nonzero;fill:rgb(22.349548%,20.779419%,21.179199%);fill-opacity:1;" d="M 251.523438 233.023438 C 256.03125 235.519531 261 233.109375 265.5 231.726562 C 272.46875 229.585938 279.273438 230.910156 285.101562 235.128906 C 288.859375 237.851562 301.320312 247.949219 305.179688 240.171875 C 305.273438 239.988281 305.089844 239.777344 304.898438 239.886719 C 302.84375 241.054688 301.378906 242.027344 298.875 241.667969 C 296.796875 241.367188 294.84375 240.3125 293.046875 239.289062 C 289.582031 237.320312 286.542969 234.703125 283.171875 232.589844 C 278.835938 229.871094 273.597656 228.984375 268.5625 229.472656 C 262.851562 230.03125 257.496094 234.722656 251.597656 232.847656 C 251.492188 232.8125 251.425781 232.96875 251.523438 233.023438 "/>
<path style=" stroke:none;fill-rule:nonzero;fill:rgb(22.349548%,20.779419%,21.179199%);fill-opacity:1;" d="M 292.0625 239.402344 C 288.839844 237.390625 286.585938 231.949219 289.101562 228.691406 C 290.515625 226.867188 294.023438 226.273438 295.515625 228.347656 C 296.078125 229.128906 295.855469 230.28125 295.605469 231.121094 C 295.441406 231.582031 295.199219 231.992188 294.871094 232.359375 C 293.75 233.6875 293.773438 231.980469 293.652344 232.003906 C 294.335938 231.867188 294.046875 230.804688 293.363281 230.960938 C 290.695312 231.574219 293.175781 234.792969 294.945312 233.644531 C 297.320312 232.109375 297.816406 227.921875 295.328125 226.214844 C 291.746094 223.738281 287.339844 226.585938 286.652344 230.496094 C 285.964844 234.398438 288.351562 238.335938 292.042969 239.4375 L 292.0625 239.402344 "/>
<path style=" stroke:none;fill-rule:nonzero;fill:rgb(22.349548%,20.779419%,21.179199%);fill-opacity:1;" d="M 286.777344 244.484375 C 279.800781 240.5 269.71875 234.242188 262.320312 241.007812 C 260.769531 242.425781 258.570312 245.785156 261.089844 247.5625 C 262.449219 248.511719 266.199219 249.765625 266.226562 247.03125 C 266.226562 246.941406 266.117188 246.929688 266.074219 246.988281 C 264.519531 249.105469 261.234375 247.230469 261.609375 244.753906 C 261.824219 243.324219 263.546875 242.144531 264.628906 241.402344 C 266.863281 239.867188 269.554688 239.390625 272.214844 239.539062 C 277.378906 239.832031 281.773438 243.402344 286.667969 244.734375 C 286.820312 244.773438 286.910156 244.558594 286.777344 244.484375 "/>
<path style=" stroke:none;fill-rule:nonzero;fill:rgb(22.349548%,20.779419%,21.179199%);fill-opacity:1;" d="M 225.582031 260.984375 C 226.808594 254.488281 219.574219 249.171875 213.667969 252.332031 C 211.488281 253.5 209.492188 256.085938 210.988281 258.519531 C 212.039062 260.242188 213.65625 259.804688 214.304688 258.171875 C 214.59375 257.457031 214.304688 257.757812 213.378906 258.171875 C 212.453125 258.589844 211.765625 255.964844 213.09375 255.097656 C 213.722656 254.523438 214.441406 254.09375 215.238281 253.804688 C 216.90625 253.125 218.785156 253.273438 220.40625 253.960938 C 223.171875 255.136719 224.664062 258.273438 225.425781 260.984375 L 225.582031 260.984375 "/>
<path style=" stroke:none;fill-rule:nonzero;fill:rgb(22.349548%,20.779419%,21.179199%);fill-opacity:1;" d="M 224.0625 256.121094 C 228.570312 251.433594 225.34375 245.105469 222.921875 240.300781 C 220.8125 236.109375 218.789062 230.203125 224.503906 228.191406 C 226.339844 227.546875 228.75 227.484375 230.347656 228.742188 C 231.667969 229.78125 231.769531 231.996094 231.496094 233.464844 C 231.191406 235.132812 228.269531 235.472656 228.460938 234.75 C 228.695312 233.855469 227.3125 233.472656 227.074219 234.367188 C 226.230469 237.566406 230.808594 237.4375 232.105469 235.402344 C 234.769531 231.230469 231.832031 226.5625 227.214844 226.375 C 222.367188 226.179688 218.949219 229.40625 219.402344 234.175781 C 220.152344 242.027344 228.953125 248.015625 224.023438 256.085938 L 224.0625 256.121094 "/>
<path style=" stroke:none;fill-rule:nonzero;fill:rgb(22.349548%,20.779419%,21.179199%);fill-opacity:1;" d="M 296.601562 243.738281 C 288.957031 242.070312 283.765625 235.152344 276.46875 232.558594 C 269.257812 229.988281 262.492188 230.632812 256.054688 234.847656 C 255.671875 235.101562 255.910156 235.746094 256.375 235.605469 C 260.183594 234.496094 263.148438 232.238281 267.261719 231.875 C 271.722656 231.480469 275.9375 233.386719 279.746094 235.472656 C 285.023438 238.359375 290.085938 244.515625 296.582031 243.847656 L 296.601562 243.738281 "/>
<path style=" stroke:none;fill-rule:nonzero;fill:rgb(22.349548%,20.779419%,21.179199%);fill-opacity:1;" d="M 287.308594 241.640625 C 281.550781 239.472656 277.65625 234.503906 271.789062 232.597656 C 266.417969 230.851562 259.667969 231.277344 254.769531 234.214844 C 254.410156 234.425781 254.585938 234.929688 254.972656 234.960938 C 257.625 235.140625 260.1875 233.789062 262.765625 233.253906 C 266.445312 232.492188 270.699219 233.304688 274.097656 234.785156 C 278.367188 236.652344 282.417969 241.730469 287.289062 241.804688 C 287.382812 241.804688 287.390625 241.675781 287.308594 241.640625 "/>
<path style=" stroke:none;fill-rule:nonzero;fill:rgb(22.349548%,20.779419%,21.179199%);fill-opacity:1;" d="M 231.3125 228.46875 C 233.96875 229.371094 235.292969 226.53125 235.871094 224.457031 C 236.582031 221.90625 236.238281 218.519531 234.246094 216.636719 C 232.292969 214.792969 227.339844 213.925781 225.847656 216.882812 C 224.632812 219.300781 226.476562 222.070312 229.007812 220.089844 C 229.125 219.996094 229 219.777344 228.863281 219.835938 C 228.691406 219.894531 228.53125 219.964844 228.363281 220.03125 C 225.859375 221.160156 226.6875 218.765625 226.988281 218.109375 C 227.554688 216.898438 229.027344 216.609375 230.203125 216.632812 C 232.105469 216.671875 233.890625 217.992188 234.519531 219.757812 C 235.539062 222.652344 235.152344 228.023438 231.332031 228.335938 L 231.3125 228.46875 "/>
<path style=" stroke:none;fill-rule:nonzero;fill:rgb(22.349548%,20.779419%,21.179199%);fill-opacity:1;" d="M 226.304688 217.679688 C 225.109375 217.925781 224.113281 218.785156 223.070312 219.390625 C 221.296875 220.429688 219.328125 221.109375 217.289062 221.339844 C 215.230469 221.574219 212.964844 220.753906 211.6875 219.097656 C 211.269531 218.550781 211.027344 217.867188 210.941406 217.1875 C 210.621094 214.511719 214.714844 215.765625 214.433594 216.636719 C 214.277344 217.128906 215.015625 217.3125 215.195312 216.847656 C 216.0625 214.59375 213.304688 213.804688 211.566406 214.046875 C 209.230469 214.378906 208.886719 217.277344 209.777344 219.007812 C 211.261719 221.894531 214.210938 222.71875 217.289062 222.539062 C 220.097656 222.375 225.050781 220.414062 226.34375 217.734375 L 226.304688 217.679688 "/>
<g clip-path="url(#clip2)" clip-rule="nonzero">
<path style=" stroke:none;fill-rule:nonzero;fill:rgb(22.349548%,20.779419%,21.179199%);fill-opacity:1;" d="M 216.800781 259.316406 C 213.96875 262.675781 217.542969 267.386719 221.011719 267.527344 C 225.492188 267.710938 226.128906 265.058594 226.609375 261.066406 C 227.085938 257.070312 229.328125 254.3125 232.746094 252.3125 C 234.046875 251.554688 235.539062 250.75 236.894531 250.34375 C 243.480469 248.339844 242.628906 256.96875 238.277344 254.761719 C 238.804688 253.082031 236.457031 254.15625 237.828125 255.207031 C 240.078125 256.9375 242.8125 255.808594 243.300781 253.140625 C 243.945312 249.578125 239.65625 249.300781 237.464844 249.605469 C 232.40625 250.300781 228.101562 252.839844 225.992188 257.671875 C 225.207031 259.464844 225.390625 261.398438 225.273438 263.296875 C 225.089844 266.285156 223.058594 266.628906 220.777344 265.535156 C 219.695312 265.03125 219.09375 264.117188 218.960938 262.800781 C 218.894531 261.835938 221.101562 259.921875 221.667969 261.371094 C 219.925781 264.542969 226.34375 263.691406 223.925781 260.164062 C 221.902344 257.214844 218.441406 257.375 216.800781 259.316406 "/>
</g>
<path style=" stroke:none;fill-rule:nonzero;fill:rgb(22.349548%,20.779419%,21.179199%);fill-opacity:1;" d="M 289.539062 238.113281 L 375.859375 237.46875 L 289.539062 236.820312 Z M 289.539062 238.113281 "/>
<path style=" stroke:none;fill-rule:nonzero;fill:rgb(22.349548%,20.779419%,21.179199%);fill-opacity:1;" d="M 207.101562 42.324219 C 205.804688 43.582031 204.695312 44.929688 204.503906 46.757812 C 204.316406 48.554688 204.78125 48.578125 205.132812 50.425781 C 204.773438 50.152344 203.117188 49.625 202.988281 49.113281 C 200.578125 53.339844 201.90625 54.703125 201.910156 55.695312 C 200.488281 52.996094 196.304688 54.824219 195.347656 56.984375 C 200.011719 55.019531 201.398438 59.988281 201.089844 62.390625 C 199.585938 61.558594 196.453125 61.703125 195.402344 64.710938 C 194.683594 66.785156 196.269531 68.105469 197.1875 68.519531 L 197.289062 68.554688 C 197.152344 68.1875 197.132812 67.777344 197.308594 67.332031 C 197.953125 65.691406 200.789062 65.195312 202.511719 65.546875 C 204.746094 66.003906 207.773438 66.9375 209.363281 73.703125 L 209.363281 34.59375 C 208.242188 37.613281 209.402344 40.085938 207.101562 42.324219 "/>
<path style=" stroke:none;fill-rule:nonzero;fill:rgb(22.349548%,20.779419%,21.179199%);fill-opacity:1;" d="M 171.101562 57.042969 C 169.1875 51.28125 159.085938 48.214844 153.695312 48.832031 C 143.113281 50.035156 135.726562 59.890625 124.96875 60.707031 C 120.738281 61.027344 115.316406 60.675781 112.355469 57.160156 C 109.925781 54.28125 108.5 45.195312 112.933594 43.398438 C 113.019531 43.367188 113.019531 43.214844 112.914062 43.230469 C 106.84375 44.007812 107.210938 54.316406 110.132812 58.097656 C 114.195312 63.359375 121.882812 64.109375 127.972656 62.644531 C 137.207031 60.417969 143.371094 51.703125 152.878906 50.152344 C 156.664062 49.535156 160.539062 50.59375 163.9375 52.296875 C 165.570312 53.113281 167.304688 54.058594 168.480469 55.492188 C 169.539062 56.773438 170.296875 59.324219 168.917969 60.371094 C 168.941406 60.222656 168.933594 60.074219 168.898438 59.941406 C 168.84375 59.746094 168.792969 59.558594 168.75 59.371094 C 168.589844 58.773438 167.933594 58.394531 167.339844 58.570312 C 164.625 59.359375 164.714844 62.574219 167.503906 63.214844 C 170.71875 63.949219 171.847656 59.273438 171.101562 57.042969 "/>
<path style=" stroke:none;fill-rule:nonzero;fill:rgb(22.349548%,20.779419%,21.179199%);fill-opacity:1;" d="M 194.011719 72.167969 C 192.699219 70.355469 191.992188 67.570312 191.300781 65.476562 C 190.234375 62.261719 188.125 60.019531 184.953125 58.816406 C 182.4375 57.871094 179.226562 57.109375 176.738281 58.441406 C 175.375 59.171875 175.402344 60.925781 175.421875 62.214844 C 175.445312 62.730469 175.523438 63.242188 175.65625 63.746094 C 176.070312 65.589844 177.675781 65.359375 177.738281 63.777344 C 177.027344 64.371094 176.523438 62.941406 177.207031 62.667969 C 179.78125 61.652344 180.492188 66.167969 177.636719 66.800781 C 173.667969 67.679688 173.449219 61.757812 174.109375 59.246094 C 175.414062 54.265625 183.101562 55.90625 186.328125 57.304688 C 191.679688 59.617188 194.0625 66.570312 194.351562 72 C 194.367188 72.21875 194.011719 72.167969 194.011719 72.167969 "/>
<path style=" stroke:none;fill-rule:nonzero;fill:rgb(22.349548%,20.779419%,21.179199%);fill-opacity:1;" d="M 174.320312 63.683594 C 174.164062 63.554688 173.832031 62.320312 173.851562 62.550781 C 173.972656 63.925781 173.84375 65.59375 173.632812 66.472656 C 173.402344 67.398438 173.011719 68.285156 172.316406 68.953125 C 170.867188 70.328125 168.277344 70.453125 166.925781 68.808594 C 165.882812 67.539062 166.527344 65.59375 167.820312 64.738281 C 168.332031 64.402344 169.074219 64.035156 169.679688 64.394531 C 170.160156 64.683594 170.601562 65.210938 170.5625 65.808594 C 170.527344 66.371094 170.246094 66.660156 169.894531 66.617188 C 170.089844 66.375 170.164062 66.046875 170.007812 65.773438 L 169.992188 65.710938 C 169.65625 65.019531 168.816406 65.175781 168.535156 65.75 C 168.167969 66.222656 168.476562 66.976562 168.972656 67.402344 C 169.941406 68.234375 171.128906 67.554688 171.570312 66.90625 C 172.386719 65.714844 171.628906 63.808594 170.359375 63.226562 C 167.933594 62.105469 165.398438 64.464844 165.082031 66.839844 C 164.644531 70.117188 168.832031 72.5 171.703125 71.320312 C 173.167969 70.71875 174.351562 69.601562 174.867188 68.070312 C 175.316406 66.746094 175.523438 64.683594 174.320312 63.683594 "/>
<path style=" stroke:none;fill-rule:nonzero;fill:rgb(22.349548%,20.779419%,21.179199%);fill-opacity:1;" d="M 155.820312 48.527344 C 162.925781 48.601562 169.773438 48.464844 175.625 43.867188 C 177.910156 42.074219 181.234375 39.023438 180.488281 35.792969 C 180.042969 33.886719 177.214844 32.992188 175.648438 32.539062 C 173.757812 31.992188 169.921875 33.867188 171.046875 36.484375 C 171.191406 36.824219 172.863281 39.414062 173.480469 37.839844 C 173.707031 37.253906 174.660156 37.496094 174.433594 38.101562 C 173.136719 41.632812 169.472656 37.308594 170.261719 34.855469 C 171.726562 30.269531 180.109375 30.402344 182.15625 34.359375 C 184.785156 39.445312 179.105469 44.355469 175.347656 46.949219 C 170.152344 50.539062 161.429688 52.234375 155.589844 49.378906 C 155.179688 49.175781 155.382812 48.523438 155.820312 48.527344 "/>
<path style=" stroke:none;fill-rule:nonzero;fill:rgb(22.349548%,20.779419%,21.179199%);fill-opacity:1;" d="M 167.203125 49.070312 C 162.695312 51.566406 157.726562 49.152344 153.226562 47.773438 C 146.257812 45.628906 139.453125 46.953125 133.625 51.175781 C 129.863281 53.898438 117.40625 63.992188 113.546875 56.214844 C 113.453125 56.035156 113.636719 55.820312 113.828125 55.933594 C 115.882812 57.101562 117.347656 58.070312 119.851562 57.710938 C 121.929688 57.414062 123.882812 56.359375 125.679688 55.335938 C 129.140625 53.367188 132.183594 50.75 135.554688 48.636719 C 139.890625 45.917969 145.128906 45.027344 150.164062 45.519531 C 155.875 46.078125 161.226562 50.765625 167.128906 48.890625 C 167.234375 48.859375 167.300781 49.015625 167.203125 49.070312 "/>
<path style=" stroke:none;fill-rule:nonzero;fill:rgb(22.349548%,20.779419%,21.179199%);fill-opacity:1;" d="M 126.664062 55.445312 C 129.886719 53.433594 132.136719 47.996094 129.625 44.738281 C 128.210938 42.910156 124.703125 42.320312 123.214844 44.394531 C 122.652344 45.175781 122.875 46.324219 123.117188 47.164062 C 123.285156 47.625 123.527344 48.039062 123.855469 48.402344 C 124.972656 49.734375 124.953125 48.023438 125.074219 48.050781 C 124.390625 47.914062 124.679688 46.847656 125.363281 47.003906 C 128.03125 47.617188 125.546875 50.835938 123.78125 49.691406 C 121.402344 48.15625 120.910156 43.96875 123.398438 42.257812 C 126.980469 39.78125 131.386719 42.632812 132.070312 46.542969 C 132.761719 50.445312 130.378906 54.378906 126.679688 55.480469 L 126.664062 55.445312 "/>
<path style=" stroke:none;fill-rule:nonzero;fill:rgb(22.349548%,20.779419%,21.179199%);fill-opacity:1;" d="M 131.949219 60.53125 C 138.925781 56.542969 149.011719 50.285156 156.40625 57.050781 C 157.957031 58.472656 160.15625 61.828125 157.632812 63.605469 C 156.277344 64.558594 152.523438 65.8125 152.503906 63.078125 C 152.503906 62.988281 152.609375 62.972656 152.652344 63.035156 C 154.207031 65.152344 157.492188 63.277344 157.121094 60.800781 C 156.902344 59.367188 155.179688 58.1875 154.097656 57.445312 C 151.863281 55.910156 149.171875 55.433594 146.511719 55.585938 C 141.34375 55.875 136.953125 59.445312 132.058594 60.777344 C 131.902344 60.816406 131.816406 60.605469 131.949219 60.53125 "/>
<path style=" stroke:none;fill-rule:nonzero;fill:rgb(22.349548%,20.779419%,21.179199%);fill-opacity:1;" d="M 193.144531 77.027344 C 191.914062 70.535156 199.152344 65.214844 205.058594 68.378906 C 207.242188 69.546875 209.230469 72.132812 207.738281 74.566406 C 206.683594 76.285156 205.070312 75.847656 204.417969 74.21875 C 204.136719 73.503906 204.417969 73.800781 205.347656 74.21875 C 206.273438 74.632812 206.957031 72.011719 205.628906 71.140625 C 205.003906 70.570312 204.289062 70.140625 203.488281 69.851562 C 201.820312 69.167969 199.941406 69.320312 198.320312 70.007812 C 195.554688 71.179688 194.0625 74.316406 193.304688 77.027344 L 193.144531 77.027344 "/>
<path style=" stroke:none;fill-rule:nonzero;fill:rgb(22.349548%,20.779419%,21.179199%);fill-opacity:1;" d="M 194.664062 72.164062 C 190.15625 67.476562 193.382812 61.152344 195.804688 56.34375 C 197.914062 52.15625 199.9375 46.246094 194.222656 44.238281 C 192.386719 43.589844 189.976562 43.53125 188.378906 44.789062 C 187.058594 45.824219 186.957031 48.042969 187.230469 49.507812 C 187.535156 51.179688 190.457031 51.515625 190.265625 50.796875 C 190.03125 49.898438 191.414062 49.515625 191.648438 50.410156 C 192.496094 53.613281 187.914062 53.480469 186.621094 51.449219 C 183.953125 47.273438 186.894531 42.605469 191.511719 42.421875 C 196.359375 42.226562 199.777344 45.453125 199.324219 50.21875 C 198.574219 58.070312 189.773438 64.0625 194.703125 72.132812 L 194.664062 72.164062 "/>
<path style=" stroke:none;fill-rule:nonzero;fill:rgb(22.349548%,20.779419%,21.179199%);fill-opacity:1;" d="M 122.125 59.785156 C 129.769531 58.113281 134.960938 51.195312 142.253906 48.601562 C 149.46875 46.035156 156.234375 46.675781 162.667969 50.894531 C 163.050781 51.148438 162.8125 51.789062 162.351562 51.652344 C 158.542969 50.539062 155.578125 48.285156 151.464844 47.921875 C 147.007812 47.527344 142.789062 49.429688 138.980469 51.515625 C 133.703125 54.40625 128.640625 60.5625 122.140625 59.894531 L 122.125 59.785156 "/>
<path style=" stroke:none;fill-rule:nonzero;fill:rgb(22.349548%,20.779419%,21.179199%);fill-opacity:1;" d="M 131.414062 57.6875 C 137.175781 55.515625 141.070312 50.550781 146.9375 48.640625 C 152.308594 46.898438 159.058594 47.324219 163.957031 50.257812 C 164.316406 50.472656 164.140625 50.976562 163.753906 51.003906 C 161.101562 51.1875 158.535156 49.832031 155.960938 49.300781 C 152.277344 48.535156 148.027344 49.347656 144.628906 50.832031 C 140.359375 52.695312 136.304688 57.777344 131.4375 57.851562 C 131.339844 57.851562 131.335938 57.71875 131.414062 57.6875 "/>
<path style=" stroke:none;fill-rule:nonzero;fill:rgb(22.349548%,20.779419%,21.179199%);fill-opacity:1;" d="M 187.414062 44.515625 C 184.757812 45.417969 183.429688 42.578125 182.855469 40.503906 C 182.144531 37.953125 182.484375 34.566406 184.480469 32.679688 C 186.433594 30.835938 191.382812 29.96875 192.878906 32.929688 C 194.09375 35.34375 192.25 38.117188 189.71875 36.136719 C 189.597656 36.039062 189.726562 35.824219 189.863281 35.882812 C 190.035156 35.941406 190.195312 36.007812 190.359375 36.078125 C 192.863281 37.207031 192.039062 34.8125 191.738281 34.15625 C 191.171875 32.941406 189.703125 32.65625 188.523438 32.675781 C 186.621094 32.714844 184.835938 34.039062 184.207031 35.804688 C 183.1875 38.699219 183.574219 44.070312 187.394531 44.382812 L 187.414062 44.515625 "/>
<path style=" stroke:none;fill-rule:nonzero;fill:rgb(22.349548%,20.779419%,21.179199%);fill-opacity:1;" d="M 192.421875 33.722656 C 193.613281 33.96875 194.609375 34.828125 195.65625 35.4375 C 197.429688 36.472656 199.398438 37.152344 201.4375 37.382812 C 203.496094 37.617188 205.761719 36.796875 207.035156 35.140625 C 207.457031 34.59375 207.699219 33.914062 207.78125 33.234375 C 208.105469 30.554688 204.011719 31.808594 204.292969 32.683594 C 204.449219 33.175781 203.710938 33.359375 203.535156 32.894531 C 202.664062 30.640625 205.421875 29.847656 207.160156 30.09375 C 209.492188 30.425781 209.835938 33.324219 208.949219 35.054688 C 207.464844 37.941406 204.515625 38.765625 201.4375 38.585938 C 198.628906 38.421875 193.675781 36.460938 192.382812 33.777344 L 192.421875 33.722656 "/>
<g clip-path="url(#clip3)" clip-rule="nonzero">
<path style=" stroke:none;fill-rule:nonzero;fill:rgb(22.349548%,20.779419%,21.179199%);fill-opacity:1;" d="M 201.921875 75.363281 C 204.753906 78.722656 201.1875 83.433594 197.710938 83.570312 C 193.234375 83.757812 192.59375 81.101562 192.117188 77.109375 C 191.640625 73.117188 189.398438 70.355469 185.980469 68.359375 C 184.675781 67.597656 183.1875 66.796875 181.832031 66.386719 C 175.246094 64.382812 176.097656 73.011719 180.449219 70.808594 C 179.921875 69.125 182.269531 70.199219 180.898438 71.25 C 178.648438 72.980469 175.914062 71.855469 175.425781 69.1875 C 174.78125 65.625 179.066406 65.347656 181.261719 65.648438 C 186.320312 66.34375 190.625 68.886719 192.734375 73.71875 C 193.515625 75.511719 193.339844 77.445312 193.453125 79.339844 C 193.636719 82.332031 195.664062 82.671875 197.949219 81.578125 C 199.03125 81.074219 199.632812 80.160156 199.761719 78.847656 C 199.832031 77.878906 197.625 75.964844 197.054688 77.414062 C 198.804688 80.585938 192.382812 79.734375 194.796875 76.210938 C 196.824219 73.257812 200.285156 73.417969 201.921875 75.363281 "/>
</g>
<path style=" stroke:none;fill-rule:nonzero;fill:rgb(22.349548%,20.779419%,21.179199%);fill-opacity:1;" d="M 129.183594 54.160156 L 42.867188 53.511719 L 129.183594 52.867188 Z M 129.183594 54.160156 "/>
<path style=" stroke:none;fill-rule:nonzero;fill:rgb(22.349548%,20.779419%,21.179199%);fill-opacity:1;" d="M 211.625 42.324219 C 212.917969 43.582031 214.03125 44.929688 214.222656 46.757812 C 214.410156 48.554688 213.945312 48.578125 213.59375 50.425781 C 213.953125 50.152344 215.609375 49.625 215.738281 49.113281 C 218.148438 53.339844 216.820312 54.703125 216.8125 55.695312 C 218.234375 52.996094 222.421875 54.824219 223.378906 56.984375 C 218.714844 55.019531 217.328125 59.988281 217.636719 62.390625 C 219.144531 61.558594 222.273438 61.703125 223.320312 64.710938 C 224.039062 66.785156 222.457031 68.105469 221.539062 68.519531 L 221.4375 68.554688 C 221.574219 68.1875 221.59375 67.777344 221.414062 67.332031 C 220.773438 65.691406 217.933594 65.195312 216.214844 65.546875 C 213.980469 66.003906 210.957031 66.9375 209.363281 73.703125 L 209.363281 34.59375 C 210.480469 37.613281 209.324219 40.085938 211.625 42.324219 "/>
<path style=" stroke:none;fill-rule:nonzero;fill:rgb(22.349548%,20.779419%,21.179199%);fill-opacity:1;" d="M 247.621094 57.042969 C 249.535156 51.28125 259.640625 48.214844 265.035156 48.832031 C 275.613281 50.035156 283 59.890625 293.753906 60.707031 C 297.988281 61.027344 303.410156 60.675781 306.371094 57.160156 C 308.800781 54.28125 310.222656 45.195312 305.792969 43.398438 C 305.707031 43.367188 305.707031 43.214844 305.8125 43.230469 C 311.882812 44.007812 311.515625 54.316406 308.59375 58.097656 C 304.53125 63.359375 296.839844 64.109375 290.75 62.644531 C 281.519531 60.417969 275.359375 51.703125 265.851562 50.152344 C 262.0625 49.535156 258.1875 50.59375 254.789062 52.296875 C 253.15625 53.113281 251.421875 54.058594 250.246094 55.492188 C 249.1875 56.773438 248.429688 59.324219 249.804688 60.371094 C 249.785156 60.222656 249.789062 60.074219 249.828125 59.941406 C 249.878906 59.746094 249.929688 59.558594 249.976562 59.371094 C 250.136719 58.773438 250.792969 58.394531 251.386719 58.570312 C 254.101562 59.359375 254.007812 62.574219 251.222656 63.214844 C 248.007812 63.949219 246.878906 59.273438 247.621094 57.042969 "/>
<path style=" stroke:none;fill-rule:nonzero;fill:rgb(22.349548%,20.779419%,21.179199%);fill-opacity:1;" d="M 224.714844 72.167969 C 226.027344 70.355469 226.730469 67.570312 227.425781 65.476562 C 228.492188 62.261719 230.597656 60.019531 233.773438 58.816406 C 236.289062 57.871094 239.5 57.109375 241.988281 58.441406 C 243.351562 59.171875 243.320312 60.925781 243.300781 62.214844 C 243.28125 62.730469 243.203125 63.242188 243.070312 63.746094 C 242.65625 65.589844 241.050781 65.359375 240.988281 63.777344 C 241.699219 64.371094 242.207031 62.941406 241.519531 62.667969 C 238.945312 61.652344 238.234375 66.167969 241.085938 66.800781 C 245.058594 67.679688 245.277344 61.757812 244.613281 59.246094 C 243.3125 54.265625 235.625 55.90625 232.398438 57.304688 C 227.046875 59.617188 224.664062 66.570312 224.371094 72 C 224.359375 72.21875 224.714844 72.167969 224.714844 72.167969 "/>
<path style=" stroke:none;fill-rule:nonzero;fill:rgb(22.349548%,20.779419%,21.179199%);fill-opacity:1;" d="M 244.410156 63.683594 C 244.5625 63.554688 244.894531 62.320312 244.875 62.550781 C 244.753906 63.925781 244.878906 65.59375 245.09375 66.472656 C 245.324219 67.398438 245.710938 68.285156 246.410156 68.953125 C 247.859375 70.328125 250.445312 70.453125 251.800781 68.808594 C 252.84375 67.539062 252.199219 65.59375 250.902344 64.738281 C 250.394531 64.402344 249.648438 64.035156 249.042969 64.394531 C 248.5625 64.683594 248.125 65.210938 248.164062 65.808594 C 248.199219 66.371094 248.476562 66.660156 248.832031 66.617188 C 248.632812 66.375 248.5625 66.046875 248.71875 65.773438 L 248.734375 65.710938 C 249.070312 65.019531 249.910156 65.175781 250.191406 65.75 C 250.558594 66.222656 250.25 66.976562 249.75 67.402344 C 248.78125 68.234375 247.597656 67.554688 247.152344 66.90625 C 246.339844 65.714844 247.097656 63.808594 248.363281 63.226562 C 250.789062 62.105469 253.328125 64.464844 253.644531 66.839844 C 254.078125 70.117188 249.898438 72.5 247.023438 71.320312 C 245.558594 70.71875 244.375 69.601562 243.855469 68.070312 C 243.410156 66.746094 243.199219 64.683594 244.410156 63.683594 "/>
<path style=" stroke:none;fill-rule:nonzero;fill:rgb(22.349548%,20.779419%,21.179199%);fill-opacity:1;" d="M 262.90625 48.527344 C 255.800781 48.601562 248.953125 48.464844 243.097656 43.867188 C 240.816406 42.074219 237.492188 39.023438 238.238281 35.792969 C 238.683594 33.886719 241.507812 32.992188 243.078125 32.539062 C 244.972656 31.992188 248.804688 33.867188 247.679688 36.484375 C 247.535156 36.824219 245.859375 39.414062 245.246094 37.839844 C 245.019531 37.253906 244.066406 37.496094 244.292969 38.101562 C 245.589844 41.632812 249.253906 37.308594 248.464844 34.855469 C 247 30.269531 238.617188 30.402344 236.570312 34.359375 C 233.941406 39.445312 239.621094 44.355469 243.375 46.949219 C 248.574219 50.539062 257.296875 52.234375 263.132812 49.378906 C 263.546875 49.175781 263.34375 48.523438 262.90625 48.527344 "/>
<path style=" stroke:none;fill-rule:nonzero;fill:rgb(22.349548%,20.779419%,21.179199%);fill-opacity:1;" d="M 251.523438 49.070312 C 256.03125 51.566406 261 49.152344 265.5 47.773438 C 272.46875 45.628906 279.273438 46.953125 285.101562 51.175781 C 288.859375 53.898438 301.320312 63.992188 305.179688 56.214844 C 305.273438 56.035156 305.089844 55.820312 304.898438 55.933594 C 302.84375 57.101562 301.378906 58.070312 298.875 57.710938 C 296.796875 57.414062 294.84375 56.359375 293.046875 55.335938 C 289.582031 53.367188 286.542969 50.75 283.171875 48.636719 C 278.835938 45.917969 273.597656 45.027344 268.5625 45.519531 C 262.851562 46.078125 257.496094 50.765625 251.597656 48.890625 C 251.492188 48.859375 251.425781 49.015625 251.523438 49.070312 "/>
<path style=" stroke:none;fill-rule:nonzero;fill:rgb(22.349548%,20.779419%,21.179199%);fill-opacity:1;" d="M 292.0625 55.445312 C 288.839844 53.433594 286.585938 47.996094 289.101562 44.738281 C 290.515625 42.910156 294.023438 42.320312 295.515625 44.394531 C 296.078125 45.175781 295.855469 46.324219 295.605469 47.164062 C 295.441406 47.625 295.199219 48.039062 294.871094 48.402344 C 293.75 49.734375 293.773438 48.023438 293.652344 48.050781 C 294.335938 47.914062 294.046875 46.847656 293.363281 47.003906 C 290.695312 47.617188 293.175781 50.835938 294.945312 49.691406 C 297.320312 48.15625 297.816406 43.96875 295.328125 42.257812 C 291.746094 39.78125 287.339844 42.632812 286.652344 46.542969 C 285.964844 50.445312 288.351562 54.378906 292.042969 55.480469 L 292.0625 55.445312 "/>
<path style=" stroke:none;fill-rule:nonzero;fill:rgb(22.349548%,20.779419%,21.179199%);fill-opacity:1;" d="M 286.777344 60.53125 C 279.800781 56.542969 269.71875 50.285156 262.320312 57.050781 C 260.769531 58.472656 258.570312 61.828125 261.089844 63.605469 C 262.449219 64.558594 266.199219 65.8125 266.226562 63.078125 C 266.226562 62.988281 266.117188 62.972656 266.074219 63.035156 C 264.519531 65.152344 261.234375 63.277344 261.609375 60.800781 C 261.824219 59.367188 263.546875 58.1875 264.628906 57.445312 C 266.863281 55.910156 269.554688 55.433594 272.214844 55.585938 C 277.378906 55.875 281.773438 59.445312 286.667969 60.777344 C 286.820312 60.816406 286.910156 60.605469 286.777344 60.53125 "/>
<path style=" stroke:none;fill-rule:nonzero;fill:rgb(22.349548%,20.779419%,21.179199%);fill-opacity:1;" d="M 225.582031 77.027344 C 226.808594 70.535156 219.574219 65.214844 213.667969 68.378906 C 211.488281 69.546875 209.492188 72.132812 210.988281 74.566406 C 212.039062 76.285156 213.65625 75.847656 214.304688 74.21875 C 214.59375 73.503906 214.304688 73.800781 213.378906 74.21875 C 212.453125 74.632812 211.765625 72.011719 213.09375 71.140625 C 213.722656 70.570312 214.441406 70.140625 215.238281 69.851562 C 216.90625 69.167969 218.785156 69.320312 220.40625 70.007812 C 223.171875 71.179688 224.664062 74.316406 225.425781 77.027344 L 225.582031 77.027344 "/>
<path style=" stroke:none;fill-rule:nonzero;fill:rgb(22.349548%,20.779419%,21.179199%);fill-opacity:1;" d="M 224.0625 72.164062 C 228.570312 67.476562 225.34375 61.152344 222.921875 56.34375 C 220.8125 52.15625 218.789062 46.246094 224.503906 44.238281 C 226.339844 43.589844 228.75 43.53125 230.347656 44.789062 C 231.667969 45.824219 231.769531 48.042969 231.496094 49.507812 C 231.191406 51.179688 228.269531 51.515625 228.460938 50.796875 C 228.695312 49.898438 227.3125 49.515625 227.074219 50.410156 C 226.230469 53.613281 230.808594 53.480469 232.105469 51.449219 C 234.769531 47.273438 231.832031 42.605469 227.214844 42.421875 C 222.367188 42.226562 218.949219 45.453125 219.402344 50.21875 C 220.152344 58.070312 228.953125 64.0625 224.023438 72.132812 L 224.0625 72.164062 "/>
<path style=" stroke:none;fill-rule:nonzero;fill:rgb(22.349548%,20.779419%,21.179199%);fill-opacity:1;" d="M 296.601562 59.785156 C 288.957031 58.113281 283.765625 51.195312 276.46875 48.601562 C 269.257812 46.035156 262.492188 46.675781 256.054688 50.894531 C 255.671875 51.148438 255.910156 51.789062 256.375 51.652344 C 260.183594 50.539062 263.148438 48.285156 267.261719 47.921875 C 271.722656 47.527344 275.9375 49.429688 279.746094 51.515625 C 285.023438 54.40625 290.085938 60.5625 296.582031 59.894531 L 296.601562 59.785156 "/>
<path style=" stroke:none;fill-rule:nonzero;fill:rgb(22.349548%,20.779419%,21.179199%);fill-opacity:1;" d="M 287.308594 57.6875 C 281.550781 55.515625 277.65625 50.550781 271.789062 48.640625 C 266.417969 46.898438 259.667969 47.324219 254.769531 50.257812 C 254.410156 50.472656 254.585938 50.976562 254.972656 51.003906 C 257.625 51.1875 260.1875 49.832031 262.765625 49.300781 C 266.445312 48.535156 270.699219 49.347656 274.097656 50.832031 C 278.367188 52.695312 282.417969 57.777344 287.289062 57.851562 C 287.382812 57.851562 287.390625 57.71875 287.308594 57.6875 "/>
<path style=" stroke:none;fill-rule:nonzero;fill:rgb(22.349548%,20.779419%,21.179199%);fill-opacity:1;" d="M 231.3125 44.515625 C 233.96875 45.417969 235.292969 42.578125 235.871094 40.503906 C 236.582031 37.953125 236.238281 34.566406 234.246094 32.679688 C 232.292969 30.835938 227.339844 29.96875 225.847656 32.929688 C 224.632812 35.34375 226.476562 38.117188 229.007812 36.136719 C 229.125 36.039062 229 35.824219 228.863281 35.882812 C 228.691406 35.941406 228.53125 36.007812 228.363281 36.078125 C 225.859375 37.207031 226.6875 34.8125 226.988281 34.15625 C 227.554688 32.941406 229.027344 32.65625 230.203125 32.675781 C 232.105469 32.714844 233.890625 34.039062 234.519531 35.804688 C 235.539062 38.699219 235.152344 44.070312 231.332031 44.382812 L 231.3125 44.515625 "/>
<path style=" stroke:none;fill-rule:nonzero;fill:rgb(22.349548%,20.779419%,21.179199%);fill-opacity:1;" d="M 226.304688 33.722656 C 225.109375 33.96875 224.113281 34.828125 223.070312 35.4375 C 221.296875 36.472656 219.328125 37.152344 217.289062 37.382812 C 215.230469 37.617188 212.964844 36.796875 211.6875 35.140625 C 211.269531 34.59375 211.027344 33.914062 210.941406 33.234375 C 210.621094 30.554688 214.714844 31.808594 214.433594 32.683594 C 214.277344 33.175781 215.015625 33.359375 215.195312 32.894531 C 216.0625 30.640625 213.304688 29.847656 211.566406 30.09375 C 209.230469 30.425781 208.886719 33.324219 209.777344 35.054688 C 211.261719 37.941406 214.210938 38.765625 217.289062 38.585938 C 220.097656 38.421875 225.050781 36.460938 226.34375 33.777344 L 226.304688 33.722656 "/>
<g clip-path="url(#clip4)" clip-rule="nonzero">
<path style=" stroke:none;fill-rule:nonzero;fill:rgb(22.349548%,20.779419%,21.179199%);fill-opacity:1;" d="M 216.800781 75.363281 C 213.96875 78.722656 217.542969 83.433594 221.011719 83.570312 C 225.492188 83.757812 226.128906 81.101562 226.609375 77.109375 C 227.085938 73.117188 229.328125 70.355469 232.746094 68.359375 C 234.046875 67.597656 235.539062 66.796875 236.894531 66.386719 C 243.480469 64.382812 242.628906 73.011719 238.277344 70.808594 C 238.804688 69.125 236.457031 70.199219 237.828125 71.25 C 240.078125 72.980469 242.8125 71.855469 243.300781 69.1875 C 243.945312 65.625 239.65625 65.347656 237.464844 65.648438 C 232.40625 66.34375 228.101562 68.886719 225.992188 73.71875 C 225.207031 75.511719 225.390625 77.445312 225.273438 79.339844 C 225.089844 82.332031 223.058594 82.671875 220.777344 81.578125 C 219.695312 81.074219 219.09375 80.160156 218.960938 78.847656 C 218.894531 77.878906 221.101562 75.964844 221.667969 77.414062 C 219.925781 80.585938 226.34375 79.734375 223.925781 76.210938 C 221.902344 73.257812 218.441406 73.417969 216.800781 75.363281 "/>
</g>
<path style=" stroke:none;fill-rule:nonzero;fill:rgb(22.349548%,20.779419%,21.179199%);fill-opacity:1;" d="M 289.539062 54.160156 L 375.859375 53.511719 L 289.539062 52.867188 Z M 289.539062 54.160156 "/>
</g>
</svg>
