<?xml version="1.0" encoding="UTF-8"?>
<svg xmlns="http://www.w3.org/2000/svg" xmlns:xlink="http://www.w3.org/1999/xlink" width="1125pt" height="1124.99995pt" viewBox="0 0 1125 1124.99995" version="1.2">
<g id="surface1">
<path style=" stroke:none;fill-rule:nonzero;fill:rgb(0%,0%,0%);fill-opacity:1;" d="M 1015.75 118.03125 C 1006.070312 118.308594 997.753906 126.171875 999.019531 135.941406 C 999.96875 143.277344 1005.9375 146.800781 1006.609375 147.179688 C 1008.320312 148.144531 1010.597656 148.339844 1012.523438 148.101562 C 1018.28125 147.394531 1019.507812 142.0625 1017.546875 139.007812 C 1016.179688 136.871094 1013.28125 135.855469 1010.875 136.667969 C 1008.46875 137.476562 1006.78125 140.039062 1006.988281 142.570312 C 1004.410156 139.15625 1004.3125 134.078125 1006.753906 130.570312 C 1011.382812 123.914062 1022.230469 124.726562 1025.738281 134.195312 C 1030.226562 146.3125 1020.039062 159.5625 1006.972656 157.777344 C 981.988281 154.363281 977.878906 121.507812 992.070312 100.671875 C 976.472656 110.261719 952.007812 110.445312 941.261719 96.957031 C 931.515625 84.726562 935.109375 69.6875 947.117188 65.308594 C 955.609375 62.210938 965.421875 65.832031 967.339844 73.5 C 968.378906 77.648438 966.484375 82.359375 962.863281 84.636719 C 959.238281 86.914062 954.167969 86.582031 950.875 83.851562 C 953.394531 84.171875 956.035156 82.605469 956.957031 80.242188 C 957.878906 77.875 956.996094 74.9375 954.921875 73.472656 C 952.851562 72.003906 949.785156 72.148438 947.859375 73.804688 C 945.0625 76.207031 944.871094 81.292969 946.25 84.015625 C 950.765625 92.917969 962.421875 94.996094 969.652344 88.664062 C 977.042969 82.1875 977.703125 71.007812 972.257812 63.90625 C 971.492188 62.90625 963.921875 53.839844 951.464844 54.347656 C 934.847656 55.03125 924.085938 71.59375 926.703125 87.140625 C 930.441406 109.328125 959.269531 120.488281 981.921875 110.355469 C 970.292969 133.410156 981.371094 161.964844 1002.585938 166.546875 C 1017.964844 169.867188 1035.058594 159.9375 1036.507812 143.339844 C 1037.523438 131.664062 1029.320312 117.640625 1015.75 118.03125 Z M 1015.75 118.03125 "/>
<path style=" stroke:none;fill-rule:nonzero;fill:rgb(0%,0%,0%);fill-opacity:1;" d="M 44.214844 1006.488281 C 53.894531 1006.210938 62.210938 998.347656 60.945312 988.578125 C 59.996094 981.242188 54.027344 977.71875 53.359375 977.339844 C 51.648438 976.375 49.371094 976.179688 47.445312 976.414062 C 41.683594 977.125 40.457031 982.457031 42.417969 985.511719 C 43.789062 987.648438 46.683594 988.664062 49.089844 987.851562 C 51.496094 987.039062 53.183594 984.480469 52.976562 981.949219 C 55.554688 985.363281 55.65625 990.441406 53.210938 993.949219 C 48.582031 1000.601562 37.734375 999.792969 34.226562 990.324219 C 29.738281 978.207031 39.929688 964.957031 52.992188 966.742188 C 77.976562 970.15625 82.089844 1003.011719 67.894531 1023.847656 C 83.492188 1014.257812 107.957031 1014.074219 118.703125 1027.5625 C 128.453125 1039.792969 124.859375 1054.832031 112.851562 1059.210938 C 104.359375 1062.308594 94.542969 1058.6875 92.625 1051.019531 C 91.585938 1046.871094 93.484375 1042.15625 97.105469 1039.882812 C 100.726562 1037.605469 105.796875 1037.9375 109.089844 1040.667969 C 106.570312 1040.347656 103.933594 1041.914062 103.011719 1044.277344 C 102.089844 1046.644531 102.96875 1049.582031 105.042969 1051.046875 C 107.113281 1052.515625 110.179688 1052.371094 112.105469 1050.714844 C 114.902344 1048.3125 115.09375 1043.226562 113.714844 1040.503906 C 109.199219 1031.601562 97.542969 1029.523438 90.3125 1035.855469 C 82.921875 1042.332031 82.261719 1053.511719 87.707031 1060.613281 C 88.472656 1061.613281 96.042969 1070.679688 108.5 1070.171875 C 125.117188 1069.488281 135.878906 1052.925781 133.261719 1037.378906 C 129.523438 1015.191406 100.695312 1004.03125 78.042969 1014.164062 C 89.671875 991.109375 78.59375 962.554688 57.378906 957.972656 C 42 954.652344 24.910156 964.585938 23.460938 981.179688 C 22.441406 992.855469 30.644531 1006.875 44.214844 1006.488281 Z M 44.214844 1006.488281 "/>
<path style=" stroke:none;fill-rule:nonzero;fill:rgb(0%,0%,0%);fill-opacity:1;" d="M 1015.75 1006.488281 C 1006.070312 1006.210938 997.753906 998.347656 999.019531 988.578125 C 999.96875 981.242188 1005.9375 977.71875 1006.609375 977.339844 C 1008.320312 976.375 1010.597656 976.179688 1012.523438 976.414062 C 1018.28125 977.125 1019.507812 982.457031 1017.546875 985.511719 C 1016.179688 987.648438 1013.28125 988.664062 1010.875 987.851562 C 1008.46875 987.039062 1006.78125 984.480469 1006.988281 981.949219 C 1004.410156 985.363281 1004.3125 990.441406 1006.753906 993.949219 C 1011.382812 1000.601562 1022.230469 999.792969 1025.738281 990.324219 C 1030.226562 978.207031 1020.039062 964.957031 1006.972656 966.742188 C 981.988281 970.15625 977.878906 1003.011719 992.070312 1023.847656 C 976.472656 1014.257812 952.007812 1014.074219 941.261719 1027.5625 C 931.515625 1039.792969 935.109375 1054.832031 947.117188 1059.210938 C 955.609375 1062.308594 965.421875 1058.6875 967.339844 1051.019531 C 968.378906 1046.871094 966.484375 1042.15625 962.863281 1039.882812 C 959.238281 1037.605469 954.167969 1037.9375 950.875 1040.667969 C 953.394531 1040.347656 956.035156 1041.914062 956.957031 1044.277344 C 957.878906 1046.644531 956.996094 1049.582031 954.921875 1051.046875 C 952.851562 1052.515625 949.785156 1052.371094 947.859375 1050.714844 C 945.0625 1048.3125 944.871094 1043.226562 946.25 1040.503906 C 950.765625 1031.601562 962.421875 1029.523438 969.652344 1035.855469 C 977.042969 1042.332031 977.703125 1053.511719 972.257812 1060.613281 C 971.492188 1061.613281 963.921875 1070.679688 951.464844 1070.171875 C 934.847656 1069.488281 924.085938 1052.925781 926.703125 1037.378906 C 930.441406 1015.191406 959.269531 1004.03125 981.921875 1014.164062 C 970.292969 991.109375 981.371094 962.554688 1002.585938 957.972656 C 1017.964844 954.652344 1035.058594 964.585938 1036.507812 981.179688 C 1037.523438 992.855469 1029.320312 1006.875 1015.75 1006.488281 Z M 1015.75 1006.488281 "/>
<path style=" stroke:none;fill-rule:nonzero;fill:rgb(0%,0%,0%);fill-opacity:1;" d="M 44.214844 118.03125 C 53.894531 118.308594 62.210938 126.171875 60.945312 135.941406 C 59.996094 143.277344 54.027344 146.800781 53.359375 147.179688 C 51.648438 148.144531 49.371094 148.339844 47.445312 148.101562 C 41.683594 147.394531 40.457031 142.0625 42.417969 139.007812 C 43.789062 136.871094 46.683594 135.855469 49.089844 136.667969 C 51.496094 137.476562 53.183594 140.039062 52.976562 142.570312 C 55.554688 139.15625 55.65625 134.078125 53.210938 130.570312 C 48.582031 123.914062 37.734375 124.726562 34.226562 134.195312 C 29.738281 146.3125 39.929688 159.5625 52.992188 157.777344 C 77.976562 154.363281 82.089844 121.507812 67.894531 100.671875 C 83.492188 110.261719 107.957031 110.445312 118.703125 96.957031 C 128.453125 84.726562 124.859375 69.6875 112.851562 65.308594 C 104.359375 62.210938 94.542969 65.832031 92.625 73.5 C 91.585938 77.648438 93.484375 82.359375 97.105469 84.636719 C 100.726562 86.914062 105.796875 86.582031 109.089844 83.851562 C 106.570312 84.171875 103.933594 82.605469 103.011719 80.242188 C 102.089844 77.875 102.96875 74.9375 105.042969 73.472656 C 107.113281 72.003906 110.179688 72.148438 112.105469 73.804688 C 114.902344 76.207031 115.09375 81.292969 113.714844 84.015625 C 109.199219 92.917969 97.542969 94.996094 90.3125 88.664062 C 82.921875 82.1875 82.261719 71.007812 87.707031 63.90625 C 88.472656 62.90625 96.042969 53.839844 108.5 54.347656 C 125.117188 55.03125 135.878906 71.59375 133.261719 87.140625 C 129.523438 109.328125 100.695312 120.488281 78.042969 110.355469 C 89.671875 133.410156 78.59375 161.964844 57.378906 166.546875 C 42 169.867188 24.910156 159.9375 23.460938 143.339844 C 22.441406 131.664062 30.644531 117.640625 44.214844 118.03125 Z M 44.214844 118.03125 "/>
<path style=" stroke:none;fill-rule:nonzero;fill:rgb(0%,0%,0%);fill-opacity:1;" d="M 1005.238281 97.929688 C 1002.714844 98.519531 999.992188 98.5625 997.28125 97.929688 C 998.964844 107.464844 1006.304688 115.304688 1018.402344 116.386719 C 1024.808594 116.960938 1029.9375 114.785156 1034.105469 108.941406 C 1037.871094 103.660156 1034.191406 97.007812 1028.183594 97.382812 C 1027.972656 97.394531 1024.429688 97.667969 1022.699219 100.855469 C 1020.902344 104.160156 1022.800781 107.390625 1022.882812 107.523438 C 1015.148438 109.101562 1008.117188 104.882812 1005.238281 97.929688 Z M 1005.238281 97.929688 "/>
<path style=" stroke:none;fill-rule:nonzero;fill:rgb(0%,0%,0%);fill-opacity:1;" d="M 54.730469 1026.589844 C 57.25 1026 59.972656 1025.957031 62.683594 1026.589844 C 61.003906 1017.054688 53.664062 1009.214844 41.5625 1008.132812 C 35.15625 1007.558594 30.027344 1009.734375 25.859375 1015.578125 C 22.09375 1020.859375 25.773438 1027.511719 31.78125 1027.136719 C 31.996094 1027.125 35.535156 1026.851562 37.265625 1023.664062 C 39.0625 1020.359375 37.164062 1017.128906 37.082031 1016.996094 C 44.816406 1015.417969 51.847656 1019.636719 54.730469 1026.589844 Z M 54.730469 1026.589844 "/>
<path style=" stroke:none;fill-rule:nonzero;fill:rgb(0%,0%,0%);fill-opacity:1;" d="M 1005.238281 1026.589844 C 1002.714844 1026 999.992188 1025.957031 997.28125 1026.589844 C 998.964844 1017.054688 1006.304688 1009.214844 1018.402344 1008.132812 C 1024.808594 1007.558594 1029.9375 1009.734375 1034.105469 1015.578125 C 1037.871094 1020.859375 1034.191406 1027.511719 1028.183594 1027.136719 C 1027.972656 1027.125 1024.429688 1026.851562 1022.699219 1023.664062 C 1020.902344 1020.359375 1022.800781 1017.128906 1022.882812 1016.996094 C 1015.148438 1015.417969 1008.117188 1019.636719 1005.238281 1026.589844 Z M 1005.238281 1026.589844 "/>
<path style=" stroke:none;fill-rule:nonzero;fill:rgb(0%,0%,0%);fill-opacity:1;" d="M 54.730469 97.929688 C 57.25 98.519531 59.972656 98.5625 62.683594 97.929688 C 61.003906 107.464844 53.664062 115.304688 41.5625 116.386719 C 35.15625 116.960938 30.027344 114.785156 25.859375 108.941406 C 22.09375 103.660156 25.773438 97.007812 31.78125 97.382812 C 31.996094 97.394531 35.535156 97.667969 37.265625 100.855469 C 39.0625 104.160156 37.164062 107.390625 37.082031 107.523438 C 44.816406 109.101562 51.847656 104.882812 54.730469 97.929688 Z M 54.730469 97.929688 "/>
<path style=" stroke:none;fill-rule:nonzero;fill:rgb(0%,0%,0%);fill-opacity:1;" d="M 1055.523438 56.265625 C 1052.234375 49.585938 1042.871094 50.285156 1040.390625 56.3125 C 1039.699219 58 1040.976562 60.394531 1043.269531 60.46875 C 1045.273438 60.730469 1046.460938 58.386719 1045.007812 56.953125 C 1044.992188 56.734375 1044.96875 56.042969 1045.421875 55.582031 C 1047.742188 53.207031 1055.773438 60.796875 1050.175781 67.09375 C 1047.398438 71.644531 1041.964844 71.921875 1039.796875 70.886719 C 1037.617188 69.84375 1032.976562 66.757812 1026.21875 66.453125 C 1015.863281 65.988281 1001.304688 72.699219 998.058594 87.242188 C 1000.519531 87.851562 1003.09375 87.851562 1005.558594 87.242188 C 1008.414062 78.691406 1016.714844 72.707031 1025.398438 73.078125 C 1027.222656 73.15625 1038.199219 74.425781 1045.648438 84.589844 C 1053.125 94.792969 1051.121094 105.878906 1050.769531 107.660156 C 1043.777344 107.429688 1039.511719 114.097656 1041.992188 120.40625 C 1048.828125 123.082031 1055.582031 116.90625 1053.285156 109.855469 C 1057.957031 97.214844 1054.195312 82.757812 1043.316406 74.082031 C 1053.121094 74.832031 1059.941406 65.1875 1055.523438 56.265625 Z M 1047.019531 118.726562 C 1048.519531 117.558594 1049.089844 115.53125 1048.324219 113.726562 C 1046.636719 113.304688 1044.84375 113.871094 1043.726562 115.300781 C 1043.941406 112.113281 1047.230469 110.230469 1050.105469 111.636719 C 1052.101562 114.550781 1050.367188 118.109375 1047.019531 118.726562 Z M 1047.019531 118.726562 "/>
<path style=" stroke:none;fill-rule:nonzero;fill:rgb(0%,0%,0%);fill-opacity:1;" d="M 4.441406 1068.25 C 7.734375 1074.933594 17.09375 1074.234375 19.574219 1068.207031 C 20.269531 1066.519531 18.988281 1064.125 16.695312 1064.046875 C 14.691406 1063.789062 13.503906 1066.132812 14.957031 1067.566406 C 14.972656 1067.785156 14.996094 1068.472656 14.546875 1068.9375 C 12.222656 1071.3125 4.195312 1063.722656 9.792969 1057.425781 C 12.566406 1052.875 18.003906 1052.597656 20.167969 1053.632812 C 22.347656 1054.675781 26.988281 1057.761719 33.746094 1058.0625 C 44.101562 1058.53125 58.664062 1051.820312 61.90625 1037.277344 C 59.445312 1036.667969 56.875 1036.667969 54.410156 1037.277344 C 51.550781 1045.828125 43.25 1051.8125 34.570312 1051.441406 C 32.746094 1051.363281 21.765625 1050.09375 14.316406 1039.929688 C 6.839844 1029.726562 8.84375 1018.640625 9.195312 1016.859375 C 16.191406 1017.089844 20.453125 1010.421875 17.972656 1004.113281 C 11.140625 1001.4375 4.386719 1007.609375 6.683594 1014.664062 C 2.007812 1027.304688 5.769531 1041.761719 16.648438 1050.433594 C 6.847656 1049.6875 0.0273438 1059.332031 4.441406 1068.25 Z M 12.945312 1005.789062 C 11.445312 1006.960938 10.878906 1008.984375 11.644531 1010.792969 C 13.328125 1011.214844 15.125 1010.648438 16.238281 1009.21875 C 16.027344 1012.40625 12.734375 1014.289062 9.859375 1012.882812 C 7.867188 1009.96875 9.597656 1006.410156 12.945312 1005.789062 Z M 12.945312 1005.789062 "/>
<path style=" stroke:none;fill-rule:nonzero;fill:rgb(0%,0%,0%);fill-opacity:1;" d="M 1055.523438 1068.25 C 1052.234375 1074.933594 1042.871094 1074.234375 1040.390625 1068.207031 C 1039.699219 1066.519531 1040.976562 1064.125 1043.269531 1064.046875 C 1045.273438 1063.789062 1046.460938 1066.132812 1045.007812 1067.566406 C 1044.992188 1067.785156 1044.96875 1068.472656 1045.421875 1068.9375 C 1047.742188 1071.3125 1055.773438 1063.722656 1050.175781 1057.425781 C 1047.398438 1052.875 1041.964844 1052.597656 1039.796875 1053.632812 C 1037.617188 1054.675781 1032.976562 1057.761719 1026.21875 1058.0625 C 1015.863281 1058.53125 1001.304688 1051.820312 998.058594 1037.277344 C 1000.519531 1036.667969 1003.09375 1036.667969 1005.558594 1037.277344 C 1008.414062 1045.828125 1016.714844 1051.8125 1025.398438 1051.441406 C 1027.222656 1051.363281 1038.199219 1050.09375 1045.648438 1039.929688 C 1053.125 1029.726562 1051.121094 1018.640625 1050.769531 1016.859375 C 1043.777344 1017.089844 1039.511719 1010.421875 1041.992188 1004.113281 C 1048.828125 1001.4375 1055.582031 1007.609375 1053.285156 1014.664062 C 1057.957031 1027.304688 1054.195312 1041.761719 1043.316406 1050.433594 C 1053.121094 1049.6875 1059.941406 1059.332031 1055.523438 1068.25 Z M 1047.019531 1005.789062 C 1048.519531 1006.960938 1049.089844 1008.984375 1048.324219 1010.792969 C 1046.636719 1011.214844 1044.84375 1010.648438 1043.726562 1009.21875 C 1043.941406 1012.40625 1047.230469 1014.289062 1050.105469 1012.882812 C 1052.101562 1009.96875 1050.367188 1006.410156 1047.019531 1005.789062 Z M 1047.019531 1005.789062 "/>
<path style=" stroke:none;fill-rule:nonzero;fill:rgb(0%,0%,0%);fill-opacity:1;" d="M 4.441406 56.265625 C 7.734375 49.585938 17.09375 50.285156 19.574219 56.3125 C 20.269531 57.996094 18.988281 60.394531 16.695312 60.46875 C 14.691406 60.730469 13.503906 58.386719 14.957031 56.953125 C 14.972656 56.734375 14.996094 56.042969 14.546875 55.582031 C 12.222656 53.207031 4.195312 60.796875 9.792969 67.09375 C 12.566406 71.644531 18.003906 71.921875 20.167969 70.886719 C 22.347656 69.84375 26.988281 66.757812 33.746094 66.453125 C 44.101562 65.988281 58.664062 72.699219 61.90625 87.238281 C 59.445312 87.847656 56.875 87.851562 54.410156 87.238281 C 51.550781 78.691406 43.25 72.707031 34.570312 73.078125 C 32.746094 73.15625 21.765625 74.425781 14.316406 84.589844 C 6.839844 94.789062 8.84375 105.875 9.195312 107.660156 C 16.191406 107.429688 20.453125 114.097656 17.972656 120.40625 C 11.140625 123.082031 4.386719 116.90625 6.683594 109.855469 C 2.007812 97.214844 5.769531 82.757812 16.648438 74.082031 C 6.847656 74.832031 0.0273438 65.1875 4.441406 56.265625 Z M 12.945312 118.726562 C 11.445312 117.558594 10.878906 115.53125 11.644531 113.726562 C 13.328125 113.304688 15.125 113.871094 16.238281 115.300781 C 16.027344 112.113281 12.734375 110.230469 9.859375 111.636719 C 7.867188 114.550781 9.597656 118.109375 12.945312 118.726562 Z M 12.945312 118.726562 "/>
<path style=" stroke:none;fill-rule:nonzero;fill:rgb(0%,0%,0%);fill-opacity:1;" d="M 995.523438 64.011719 C 995.363281 58.839844 990.144531 56.195312 986.128906 58.046875 C 978.417969 61.605469 974.640625 71.699219 977.695312 80.183594 C 981.308594 91.355469 992.828125 98.027344 1004.367188 95.53125 C 1014.882812 93.351562 1023.152344 85.097656 1025.28125 74.496094 C 1023.183594 74.023438 1021.011719 74.164062 1018.972656 74.90625 C 1018.414062 76.570312 1016.402344 80.980469 1011.726562 84.796875 C 999.8125 94.527344 982.957031 84.796875 985.648438 70.382812 C 990.46875 72.253906 995.53125 69.347656 995.523438 64.011719 Z M 995.523438 64.011719 "/>
<path style=" stroke:none;fill-rule:nonzero;fill:rgb(0%,0%,0%);fill-opacity:1;" d="M 64.445312 1060.507812 C 64.601562 1065.679688 69.820312 1068.324219 73.835938 1066.46875 C 81.546875 1062.914062 85.324219 1052.820312 82.273438 1044.335938 C 78.65625 1033.164062 67.136719 1026.492188 55.597656 1028.988281 C 45.085938 1031.167969 36.8125 1039.421875 34.683594 1050.023438 C 36.78125 1050.496094 38.953125 1050.355469 40.992188 1049.613281 C 41.550781 1047.945312 43.566406 1043.539062 48.238281 1039.722656 C 60.152344 1029.992188 77.007812 1039.722656 74.316406 1054.136719 C 69.5 1052.265625 64.433594 1055.171875 64.445312 1060.507812 Z M 64.445312 1060.507812 "/>
<path style=" stroke:none;fill-rule:nonzero;fill:rgb(0%,0%,0%);fill-opacity:1;" d="M 995.523438 1060.507812 C 995.363281 1065.679688 990.144531 1068.324219 986.128906 1066.46875 C 978.417969 1062.914062 974.640625 1052.820312 977.695312 1044.335938 C 981.308594 1033.164062 992.828125 1026.492188 1004.367188 1028.988281 C 1014.882812 1031.167969 1023.152344 1039.421875 1025.28125 1050.023438 C 1023.183594 1050.496094 1021.011719 1050.355469 1018.972656 1049.613281 C 1018.414062 1047.945312 1016.402344 1043.539062 1011.726562 1039.722656 C 999.8125 1029.992188 982.957031 1039.722656 985.648438 1054.136719 C 990.46875 1052.265625 995.53125 1055.171875 995.523438 1060.507812 Z M 995.523438 1060.507812 "/>
<path style=" stroke:none;fill-rule:nonzero;fill:rgb(0%,0%,0%);fill-opacity:1;" d="M 64.445312 64.011719 C 64.601562 58.839844 69.820312 56.195312 73.835938 58.046875 C 81.546875 61.605469 85.324219 71.699219 82.273438 80.183594 C 78.65625 91.355469 67.136719 98.027344 55.597656 95.53125 C 45.085938 93.351562 36.8125 85.097656 34.683594 74.496094 C 36.78125 74.023438 38.953125 74.164062 40.992188 74.90625 C 41.550781 76.570312 43.566406 80.980469 48.238281 84.796875 C 60.152344 94.527344 77.007812 84.796875 74.316406 70.382812 C 69.5 72.253906 64.433594 69.347656 64.445312 64.011719 Z M 64.445312 64.011719 "/>
<path style=" stroke:none;fill-rule:nonzero;fill:rgb(0%,0%,0%);fill-opacity:1;" d="M 984.894531 41.695312 C 1001.511719 37.453125 1017.628906 48.636719 1019.910156 65.265625 L 1026.082031 65.3125 C 1025.5 61.167969 1024.085938 57.140625 1021.878906 53.480469 C 1020.410156 47.683594 1024.035156 41.839844 1030.195312 40.964844 C 1034.933594 40.722656 1039.121094 44.03125 1036.460938 48.179688 C 1033.757812 45.523438 1029.601562 49.550781 1033.71875 52.109375 C 1037.480469 54.449219 1042.382812 49.464844 1041.304688 43.476562 C 1040.023438 36.335938 1030.816406 34.140625 1025.078125 37.21875 C 1020.863281 39.476562 1018.347656 44.230469 1018.632812 49.367188 C 1009.882812 38.464844 995.535156 34.5625 982.46875 39.226562 C 975.679688 37.785156 970.214844 44.707031 973.191406 50.96875 C 979.570312 53.84375 986.15625 48.515625 984.894531 41.695312 Z M 981.144531 42.195312 C 982.984375 44.875 981.515625 48.367188 978.539062 49.140625 C 979.941406 47.984375 980.304688 46.035156 979.269531 44.480469 C 977.535156 43.949219 975.710938 44.417969 974.425781 45.667969 C 975.214844 42.753906 978.332031 41.164062 981.144531 42.195312 Z M 981.144531 42.195312 "/>
<path style=" stroke:none;fill-rule:nonzero;fill:rgb(0%,0%,0%);fill-opacity:1;" d="M 75.074219 1082.824219 C 58.453125 1087.066406 42.339844 1075.882812 40.054688 1059.253906 L 33.882812 1059.207031 C 34.464844 1063.351562 35.878906 1067.378906 38.089844 1071.039062 C 39.554688 1076.835938 35.933594 1082.675781 29.769531 1083.554688 C 25.03125 1083.796875 20.84375 1080.488281 23.503906 1076.339844 C 26.207031 1078.996094 30.363281 1074.96875 26.25 1072.410156 C 22.484375 1070.066406 17.585938 1075.054688 18.660156 1081.042969 C 19.941406 1088.183594 29.148438 1090.378906 34.890625 1087.300781 C 39.101562 1085.042969 41.621094 1080.285156 41.335938 1075.148438 C 50.082031 1086.054688 64.429688 1089.957031 77.496094 1085.292969 C 84.285156 1086.730469 89.753906 1079.8125 86.777344 1073.550781 C 80.394531 1070.675781 73.808594 1076.003906 75.074219 1082.824219 Z M 78.820312 1082.320312 C 76.984375 1079.644531 78.449219 1076.152344 81.425781 1075.378906 C 80.023438 1076.535156 79.660156 1078.484375 80.695312 1080.039062 C 82.433594 1080.570312 84.253906 1080.101562 85.542969 1078.851562 C 84.75 1081.761719 81.632812 1083.355469 78.820312 1082.320312 Z M 78.820312 1082.320312 "/>
<path style=" stroke:none;fill-rule:nonzero;fill:rgb(0%,0%,0%);fill-opacity:1;" d="M 984.894531 1082.824219 C 1001.511719 1087.066406 1017.628906 1075.882812 1019.910156 1059.253906 L 1026.082031 1059.207031 C 1025.5 1063.351562 1024.085938 1067.378906 1021.878906 1071.039062 C 1020.410156 1076.835938 1024.035156 1082.675781 1030.195312 1083.554688 C 1034.933594 1083.796875 1039.121094 1080.488281 1036.460938 1076.339844 C 1033.757812 1078.996094 1029.601562 1074.96875 1033.71875 1072.410156 C 1037.480469 1070.066406 1042.382812 1075.054688 1041.304688 1081.042969 C 1040.023438 1088.183594 1030.816406 1090.378906 1025.078125 1087.300781 C 1020.863281 1085.042969 1018.347656 1080.285156 1018.632812 1075.148438 C 1009.882812 1086.054688 995.535156 1089.957031 982.46875 1085.292969 C 975.679688 1086.730469 970.214844 1079.8125 973.191406 1073.550781 C 979.570312 1070.675781 986.15625 1076.003906 984.894531 1082.824219 Z M 981.144531 1082.320312 C 982.984375 1079.644531 981.515625 1076.152344 978.539062 1075.378906 C 979.941406 1076.535156 980.304688 1078.484375 979.269531 1080.039062 C 977.535156 1080.570312 975.710938 1080.101562 974.425781 1078.851562 C 975.214844 1081.761719 978.332031 1083.355469 981.144531 1082.320312 Z M 981.144531 1082.320312 "/>
<path style=" stroke:none;fill-rule:nonzero;fill:rgb(0%,0%,0%);fill-opacity:1;" d="M 75.074219 41.695312 C 58.453125 37.453125 42.339844 48.636719 40.054688 65.265625 L 33.882812 65.3125 C 34.464844 61.167969 35.878906 57.140625 38.089844 53.480469 C 39.554688 47.683594 35.933594 41.839844 29.769531 40.964844 C 25.03125 40.722656 20.84375 44.03125 23.503906 48.179688 C 26.207031 45.523438 30.363281 49.550781 26.25 52.109375 C 22.484375 54.449219 17.585938 49.464844 18.660156 43.476562 C 19.941406 36.335938 29.148438 34.140625 34.890625 37.21875 C 39.101562 39.476562 41.621094 44.230469 41.335938 49.367188 C 50.082031 38.464844 64.429688 34.5625 77.496094 39.226562 C 84.285156 37.785156 89.753906 44.707031 86.777344 50.96875 C 80.394531 53.84375 73.808594 48.515625 75.074219 41.695312 Z M 78.820312 42.195312 C 76.984375 44.875 78.449219 48.367188 81.425781 49.140625 C 80.023438 47.984375 79.660156 46.035156 80.695312 44.480469 C 82.433594 43.949219 84.253906 44.417969 85.542969 45.667969 C 84.75 42.753906 81.632812 41.164062 78.820312 42.195312 Z M 78.820312 42.195312 "/>
<path style=" stroke:none;fill-rule:nonzero;fill:rgb(0%,0%,0%);fill-opacity:1;" d="M 1055.660156 36.304688 C 1047.730469 34.28125 1040.851562 42.070312 1043.867188 49.6875 C 1052.054688 51.582031 1058.339844 44.027344 1055.660156 36.304688 Z M 1050.769531 37.765625 C 1049 39.4375 1048.039062 41.84375 1048.300781 44.390625 C 1051.011719 44.582031 1053.636719 43.167969 1054.882812 40.597656 C 1054.421875 45.015625 1050.269531 48.136719 1045.832031 47.222656 C 1044.363281 43.164062 1046.671875 38.878906 1050.769531 37.765625 Z M 1050.769531 37.765625 "/>
<path style=" stroke:none;fill-rule:nonzero;fill:rgb(0%,0%,0%);fill-opacity:1;" d="M 4.304688 1088.214844 C 12.238281 1090.238281 19.113281 1082.449219 16.101562 1074.832031 C 7.914062 1072.9375 1.625 1080.492188 4.304688 1088.214844 Z M 9.195312 1086.753906 C 10.964844 1085.082031 11.925781 1082.675781 11.664062 1080.128906 C 8.957031 1079.933594 6.328125 1081.351562 5.082031 1083.921875 C 5.542969 1079.503906 9.695312 1076.382812 14.132812 1077.296875 C 15.601562 1081.355469 13.292969 1085.640625 9.195312 1086.753906 Z M 9.195312 1086.753906 "/>
<path style=" stroke:none;fill-rule:nonzero;fill:rgb(0%,0%,0%);fill-opacity:1;" d="M 1055.660156 1088.214844 C 1047.730469 1090.238281 1040.851562 1082.449219 1043.867188 1074.832031 C 1052.054688 1072.9375 1058.339844 1080.492188 1055.660156 1088.214844 Z M 1050.769531 1086.753906 C 1049 1085.082031 1048.039062 1082.675781 1048.300781 1080.128906 C 1051.011719 1079.933594 1053.636719 1081.351562 1054.882812 1083.921875 C 1054.421875 1079.503906 1050.269531 1076.382812 1045.832031 1077.296875 C 1044.363281 1081.355469 1046.671875 1085.640625 1050.769531 1086.753906 Z M 1050.769531 1086.753906 "/>
<path style=" stroke:none;fill-rule:nonzero;fill:rgb(0%,0%,0%);fill-opacity:1;" d="M 4.304688 36.304688 C 12.238281 34.28125 19.113281 42.070312 16.101562 49.6875 C 7.914062 51.582031 1.625 44.027344 4.304688 36.304688 Z M 9.195312 37.765625 C 10.964844 39.4375 11.925781 41.84375 11.664062 44.390625 C 8.957031 44.582031 6.328125 43.167969 5.082031 40.597656 C 5.542969 45.015625 9.695312 48.136719 14.132812 47.222656 C 15.601562 43.164062 13.292969 38.878906 9.195312 37.765625 Z M 9.195312 37.765625 "/>
<path style="fill:none;stroke-width:4.166;stroke-linecap:butt;stroke-linejoin:miter;stroke:rgb(0%,0%,0%);stroke-opacity:1;stroke-miterlimit:10;" d="M 1961.148771 509.685643 C 1961.148771 541.335071 1961.148771 760.499012 1961.148771 792.155861 " transform="matrix(0.526758,0,0,0.526397,-9.903031,22.902351)"/>
<path style="fill:none;stroke-width:4.166;stroke-linecap:butt;stroke-linejoin:miter;stroke:rgb(0%,0%,0%);stroke-opacity:1;stroke-miterlimit:10;" d="M 1961.148771 793.076032 C 1961.148771 842.357123 1961.148771 1714.835016 1961.148771 1766.446217 C 1902.127696 1749.252377 1847.585666 1803.802189 1864.760288 1862.834123 C 1805.175623 1845.417662 1750.737413 1901.919126 1770.581665 1960.862012 L 279.259461 1960.862012 C 299.103713 1901.919126 244.672918 1845.417662 185.080838 1862.834123 C 202.262875 1803.802189 147.720846 1749.252377 88.692354 1766.446217 C 88.692354 1692.891907 88.692354 356.187772 88.692354 282.789297 C 147.720846 299.983136 202.262875 245.433325 185.080838 186.408811 C 244.672918 203.825273 299.103713 147.323808 279.259461 88.380922 L 1770.581665 88.380922 C 1750.737413 147.323808 1805.175623 203.825273 1864.760288 186.408811 C 1847.585666 245.433325 1902.127696 299.983136 1961.148771 282.789297 C 1961.148771 358.117162 1961.148771 433.445027 1961.148771 508.765472 " transform="matrix(0.526758,0,0,0.526397,-9.903031,22.902351)"/>
<path style="fill:none;stroke-width:3.124;stroke-linecap:butt;stroke-linejoin:miter;stroke:rgb(0%,0%,0%);stroke-opacity:1;stroke-miterlimit:10;" d="M 1946.324908 333.636163 L 1946.324908 508.765472 " transform="matrix(0.526758,0,0,0.526397,-9.903031,22.902351)"/>
<path style="fill:none;stroke-width:3.124;stroke-linecap:butt;stroke-linejoin:miter;stroke:rgb(0%,0%,0%);stroke-opacity:1;stroke-miterlimit:10;" d="M 1946.324908 792.155861 L 1946.324908 509.685643 " transform="matrix(0.526758,0,0,0.526397,-9.903031,22.902351)"/>
<path style="fill:none;stroke-width:3.124;stroke-linecap:butt;stroke-linejoin:miter;stroke:rgb(0%,0%,0%);stroke-opacity:1;stroke-miterlimit:10;" d="M 1946.324908 1715.606772 C 1946.324908 1707.540435 1946.324908 811.509134 1946.324908 793.076032 " transform="matrix(0.526758,0,0,0.526397,-9.903031,22.902351)"/>
<path style="fill:none;stroke-width:3.124;stroke-linecap:butt;stroke-linejoin:miter;stroke:rgb(0%,0%,0%);stroke-opacity:1;stroke-miterlimit:10;" d="M 103.516218 333.636163 C 103.516218 397.343159 103.516218 1647.046616 103.516218 1715.606772 " transform="matrix(0.526758,0,0,0.526397,-9.903031,22.902351)"/>
<path style=" stroke:none;fill-rule:nonzero;fill:rgb(0%,0%,0%);fill-opacity:1;" d="M 1020.960938 195.375 C 1017.753906 193.425781 1015.917969 195.570312 1015.339844 195.921875 C 1014.789062 195.589844 1012.972656 193.394531 1009.714844 195.375 C 1011.589844 191.789062 1013.464844 188.199219 1015.339844 184.613281 C 1015.339844 184.613281 1015.339844 184.613281 1020.960938 195.375 Z M 1020.960938 195.375 "/>
<path style=" stroke:none;fill-rule:nonzero;fill:rgb(0%,0%,0%);fill-opacity:1;" d="M 39.003906 929.144531 C 42.210938 931.09375 44.046875 928.949219 44.625 928.597656 C 45.175781 928.929688 46.992188 931.121094 50.25 929.144531 C 48.375 932.730469 46.5 936.320312 44.625 939.90625 C 44.625 939.90625 44.625 939.90625 39.003906 929.144531 Z M 39.003906 929.144531 "/>
<path style=" stroke:none;fill-rule:nonzero;fill:rgb(0%,0%,0%);fill-opacity:1;" d="M 1020.960938 929.144531 C 1017.753906 931.09375 1015.917969 928.949219 1015.339844 928.597656 C 1014.789062 928.929688 1012.972656 931.121094 1009.714844 929.144531 C 1011.589844 932.730469 1013.464844 936.320312 1015.339844 939.90625 C 1015.339844 939.90625 1015.339844 939.90625 1020.960938 929.144531 Z M 1020.960938 929.144531 "/>
<path style=" stroke:none;fill-rule:nonzero;fill:rgb(0%,0%,0%);fill-opacity:1;" d="M 39.003906 195.375 C 42.210938 193.425781 44.046875 195.570312 44.625 195.921875 C 45.175781 195.589844 46.992188 193.394531 50.25 195.375 C 48.375 191.789062 46.5 188.199219 44.625 184.613281 C 44.625 184.613281 44.625 184.613281 39.003906 195.375 Z M 39.003906 195.375 "/>
<path style="fill:none;stroke-width:3.124;stroke-linecap:butt;stroke-linejoin:miter;stroke:rgb(0%,0%,0%);stroke-opacity:1;stroke-miterlimit:10;" d="M 1715.624359 104.64717 L 334.224182 104.64717 " transform="matrix(0.526758,0,0,0.526397,-9.903031,22.902351)"/>
<path style="fill:none;stroke-width:3.124;stroke-linecap:butt;stroke-linejoin:miter;stroke:rgb(0%,0%,0%);stroke-opacity:1;stroke-miterlimit:10;" d="M 334.224182 1944.588344 L 1715.624359 1944.588344 " transform="matrix(0.526758,0,0,0.526397,-9.903031,22.902351)"/>
<path style=" stroke:none;fill-rule:nonzero;fill:rgb(0%,0%,0%);fill-opacity:1;" d="M 896.96875 83.609375 C 898.921875 80.402344 896.773438 78.570312 896.421875 77.988281 C 896.753906 77.441406 898.949219 75.625 896.96875 72.371094 C 900.558594 74.242188 904.148438 76.117188 907.738281 77.988281 C 907.738281 77.988281 907.738281 77.988281 896.96875 83.609375 Z M 896.96875 83.609375 "/>
<path style=" stroke:none;fill-rule:nonzero;fill:rgb(0%,0%,0%);fill-opacity:1;" d="M 162.996094 1040.910156 C 161.046875 1044.113281 163.191406 1045.949219 163.542969 1046.527344 C 163.210938 1047.078125 161.015625 1048.894531 162.996094 1052.148438 C 159.40625 1050.277344 155.816406 1048.402344 152.226562 1046.527344 C 152.226562 1046.527344 152.226562 1046.527344 162.996094 1040.910156 Z M 162.996094 1040.910156 "/>
<path style=" stroke:none;fill-rule:nonzero;fill:rgb(0%,0%,0%);fill-opacity:1;" d="M 896.96875 1040.910156 C 898.921875 1044.113281 896.773438 1045.949219 896.421875 1046.527344 C 896.753906 1047.078125 898.949219 1048.894531 896.96875 1052.148438 C 900.558594 1050.277344 904.148438 1048.402344 907.738281 1046.527344 C 907.738281 1046.527344 907.738281 1046.527344 896.96875 1040.910156 Z M 896.96875 1040.910156 "/>
<path style=" stroke:none;fill-rule:nonzero;fill:rgb(0%,0%,0%);fill-opacity:1;" d="M 162.996094 83.609375 C 161.046875 80.402344 163.191406 78.570312 163.542969 77.988281 C 163.210938 77.441406 161.015625 75.625 162.996094 72.371094 C 159.40625 74.242188 155.816406 76.117188 152.226562 77.988281 C 152.226562 77.988281 152.226562 77.988281 162.996094 83.609375 Z M 162.996094 83.609375 "/>
<path style=" stroke:none;fill-rule:nonzero;fill:rgb(0%,0%,0%);fill-opacity:1;" d="M 937.945312 55.535156 C 935.054688 56.835938 932.578125 59.058594 930.996094 62.023438 L 128.96875 62.023438 C 127.386719 59.058594 124.910156 56.835938 122.023438 55.535156 Z M 937.945312 55.535156 "/>
<path style=" stroke:none;fill-rule:nonzero;fill:rgb(0%,0%,0%);fill-opacity:1;" d="M 122.023438 1068.984375 C 124.910156 1067.683594 127.386719 1065.460938 128.96875 1062.496094 L 930.996094 1062.496094 C 932.578125 1065.457031 935.054688 1067.683594 937.945312 1068.984375 Z M 122.023438 1068.984375 "/>
<path style=" stroke:none;fill-rule:nonzero;fill:rgb(0%,0%,0%);fill-opacity:1;" d="M 1036.597656 154.671875 C 1035.296875 157.558594 1033.074219 160.03125 1030.105469 161.613281 L 1030.105469 962.90625 C 1033.074219 964.488281 1035.296875 966.960938 1036.597656 969.847656 Z M 1036.597656 154.671875 "/>
<path style=" stroke:none;fill-rule:nonzero;fill:rgb(0%,0%,0%);fill-opacity:1;" d="M 23.367188 969.847656 C 24.667969 966.960938 26.894531 964.488281 29.859375 962.90625 L 29.859375 161.613281 C 26.894531 160.03125 24.667969 157.558594 23.367188 154.671875 Z M 23.367188 969.847656 "/>
</g>
</svg>
